<svg width="300" height="357" viewBox="0 0 300 357" fill="none" xmlns="http://www.w3.org/2000/svg">
<path d="M269.009 180.991C286.125 115.264 246.718 48.1072 180.991 30.9912C115.265 13.8752 48.1072 53.282 30.9912 119.009C13.8753 184.735 53.2821 251.893 119.009 269.009C184.736 286.125 251.893 246.718 269.009 180.991Z" fill="#32A095"/>
<path d="M225.129 156.043C229.795 152.093 229.389 145.402 226.965 139.789C224.543 134.177 218.227 130.517 212.153 131.205C217.026 127.784 216.369 120.781 213.605 115.508C210.842 110.233 203.928 107.573 198.341 109.633C203.537 105.49 203.709 98.6428 200.337 92.9155C198.927 90.5215 196.734 88.6794 194.216 87.5189C192.792 82.0189 189.621 76.9672 185.022 73.6156C181.328 70.9234 176.87 69.4566 172.322 69.1462C167.029 65.5674 160.281 63.4818 154.641 66.243C138.644 60.4975 119.409 65.2509 107.93 77.7868C106.005 79.8886 104.234 82.3049 103.765 85.1168C103.296 87.9287 104.497 91.187 107.123 92.2967C99.9873 88.8234 93.6656 91.5379 88.2 97.2916C82.7324 103.043 81.5274 112.414 85.3597 119.363C79.2328 119.566 74.2927 126.766 72.8462 132.724C71.3976 138.683 74.3414 145.431 79.6933 148.423C72.1381 149.196 69.3404 159.583 71.6187 166.83C73.1099 171.574 77.7355 174.832 82.6128 175.491C78.4233 177.571 74.6903 181.561 72.9801 185.485C70.2716 191.699 72.4587 199.664 77.9628 203.624C83.4648 207.583 91.7139 207.126 96.7432 202.582C95.0249 207.339 98.5834 213.799 103.085 216.103C107.589 218.408 113.116 217.909 117.788 215.968C122.46 214.026 126.457 210.79 130.381 207.599C128.758 208.567 131.172 211.015 131.894 212.762C132.616 214.507 134.191 215.755 135.83 216.696C144.939 221.93 157.885 218.84 163.649 210.058C163.352 216.331 168.177 222.21 174.454 222.391C180.731 222.571 186.582 216.941 186.645 210.662C190.686 216.745 198.116 218.307 203.879 213.823C209.641 209.34 210.473 199.794 205.572 194.381C210.885 199.123 220.175 201.999 224.563 196.394C228.953 190.786 227.527 181.576 221.65 177.556C228.205 178.954 235.804 176.386 236.652 169.738C237.503 163.083 231.826 156.339 225.129 156.043Z" fill="#2E2E2E"/>
<path d="M172.845 232.192C173.285 245.614 162.76 256.746 149.629 256.746C136.775 256.746 126.414 246.075 126.414 232.981C126.414 232.725 126.414 232.449 126.432 232.192L129.017 196.745L129.348 192.178L130.961 170.155H168.296L169.966 193.004L170.333 197.992L172.845 232.192Z" fill="#F5F5FF" stroke="#2E2E2E" stroke-width="0.5" stroke-miterlimit="10" stroke-linecap="round" stroke-linejoin="round"/>
<path d="M171.735 214.588C159.968 216.028 146.7 210.368 137.712 198.885C134.06 194.239 131.524 189.127 130.064 183.953L131.119 169.65H168.448L170.112 192.494L170.497 197.485L171.735 214.588Z" fill="#2E2E2E"/>
<path d="M184.178 136.654C179.487 144.187 179.941 153.11 185.19 156.585C190.438 160.06 198.497 156.77 203.187 149.237C207.878 141.704 207.423 132.781 202.175 129.308C196.924 125.831 188.868 129.121 184.178 136.654Z" fill="#F5F5FF" stroke="#2E2E2E" stroke-width="0.5" stroke-miterlimit="10" stroke-linecap="round" stroke-linejoin="round"/>
<path d="M198.225 132.921C200.499 133.81 202.226 135.968 202.595 138.381C202.964 140.793 201.958 143.369 200.053 144.895" stroke="#2E2E2E" stroke-width="0.5" stroke-miterlimit="10" stroke-linecap="round" stroke-linejoin="round"/>
<path d="M114.779 136.654C119.47 144.187 119.015 153.11 113.767 156.585C108.518 160.06 100.46 156.77 95.7693 149.237C91.0788 141.704 91.5332 132.781 96.7817 129.308C102.03 125.831 110.088 129.121 114.779 136.654Z" fill="#F5F5FF" stroke="#2E2E2E" stroke-width="0.5" stroke-miterlimit="10" stroke-linecap="round" stroke-linejoin="round"/>
<path d="M100.732 132.921C98.4574 133.81 96.7309 135.968 96.3617 138.381C95.9924 140.793 96.9987 143.369 98.9037 144.895" stroke="#2E2E2E" stroke-width="0.5" stroke-miterlimit="10" stroke-linecap="round" stroke-linejoin="round"/>
<path d="M196.316 122.566C196.316 123.26 196.316 123.93 196.265 124.563C196.188 126.535 196.01 128.507 195.728 130.432L195.434 133.193L195.292 134.688L195.074 136.851C194.947 138.166 194.857 139.458 194.768 140.748C194.717 141.574 194.665 142.385 194.614 143.199C194.409 146.473 194.216 149.701 193.731 152.929C193.731 152.978 193.705 153.037 193.705 153.085C193.602 153.694 193.5 154.317 193.372 154.925C193.245 155.595 193.117 156.252 192.924 156.897C192.693 157.865 192.411 158.845 192.078 159.837C191.974 160.196 191.847 160.531 191.707 160.89C191.451 161.608 191.143 162.324 190.836 163.065C189.978 164.954 188.966 166.806 187.801 168.648C182.948 176.323 175.523 183.339 168.071 188.001C168.045 188.049 167.994 188.072 167.968 188.072C167.059 188.658 166.15 189.196 165.253 189.685C156.176 194.706 145.434 194.98 136.025 190.652C134.079 189.756 132.196 188.739 130.378 187.532C130.352 187.532 130.328 187.532 130.301 187.485C123.093 182.823 116.909 176.069 112.249 168.646C111.916 168.133 111.608 167.617 111.29 167.08C111.135 166.806 110.983 166.518 110.829 166.244C110.573 165.777 110.318 165.288 110.048 164.81C109.305 163.532 108.652 162.193 108.064 160.888C107.91 160.529 107.731 160.17 107.589 159.788C105.4 154.564 104.619 148.732 104.108 142.994C104.018 142.097 103.941 141.188 103.864 140.292C103.775 139.287 103.684 138.283 103.609 137.291L103.353 134.601C103.288 134.303 103.237 134.015 103.187 133.729C103.109 133.406 103.059 133.083 103.02 132.761C102.789 131.529 102.61 130.298 102.47 129.02C102.241 126.952 102.111 124.776 102.111 122.564C102.111 122.386 102.111 122.181 102.138 122.002C102.138 120.615 102.201 119.253 102.316 117.902C102.418 116.754 102.572 115.62 102.765 114.508C103.84 107.695 106.246 101.359 109.729 95.8004C110.6 94.4026 111.533 93.0636 112.533 91.7713C122.48 78.9047 139.482 71.4185 156.862 74.2182C170.766 76.458 182.052 85.0235 188.838 96.0378C189.043 96.3239 189.209 96.6241 189.414 96.9467C192.461 102.195 194.638 108.075 195.649 114.374C195.649 114.421 195.675 114.457 195.675 114.506C195.853 115.618 195.996 116.754 196.097 117.9C196.225 119.251 196.29 120.613 196.29 122C196.316 122.185 196.316 122.388 196.316 122.566Z" fill="#F5F5FF" stroke="#2E2E2E" stroke-width="0.5086" stroke-miterlimit="10" stroke-linecap="round" stroke-linejoin="round"/>
<path d="M155.071 67.4867C160.057 72.0596 161.281 79.9272 157.897 85.6829C154.513 91.4365 146.836 94.5507 140.139 92.8851C142.214 95.9952 140.583 100.765 138.349 103.774C136.114 106.782 131.892 108.312 128.124 107.478C131.314 117.411 124.807 129.054 115.367 134.246C117.92 139.17 116.554 147.025 113.862 151.882C111.17 156.739 105.94 160.239 100.233 161.002C104.006 165.248 105.343 172.03 103.349 177.26C101.357 182.491 96.2805 186.538 90.5289 187.487C85.8343 188.26 78.6686 187.057 76.6236 182.957C74.5786 178.857 75.8892 173.487 79.6222 170.665C77.4615 166.262 76.1265 162.142 75.8547 157.287C75.5159 151.267 76.7656 145.045 80.2206 139.996C83.6757 134.946 89.5044 131.223 95.822 130.915C90.3727 123.181 89.0276 113.984 92.998 105.472C96.9703 96.9589 105.731 90.6432 115.408 89.3205C115.311 83.9949 117.37 78.8621 121.695 75.4862C126.018 72.1123 131.993 70.7469 137.453 71.8871C138.857 68.6938 143.876 66.8131 147.461 66.2552C151.046 65.6993 154.89 67.016 157.284 69.621" fill="#2E2E2E"/>
<path d="M159.254 69.8745C155.596 76.2754 155.803 84.6989 159.776 90.911C163.748 97.1232 171.305 100.848 178.651 100.213C175.233 104.021 175.823 110.327 179.006 114.333C182.19 118.342 188.373 119.584 192.857 117.115C190.564 119.04 188.221 121.947 188.006 124.934C187.789 127.92 189.501 131.13 192.356 132.037C195.21 132.943 198.795 130.795 198.82 127.8C198.885 119.375 204.048 111.455 201.209 103.52C198.373 95.5854 191.991 88.9938 184.153 85.902C181.36 75.0561 170.453 69.7244 159.254 69.8745Z" fill="#2E2E2E"/>
<path d="M127.179 157.607C136.314 157.607 143.72 150.202 143.72 141.067C143.72 131.932 136.314 124.526 127.179 124.526C118.044 124.526 110.638 131.932 110.638 141.067C110.638 150.202 118.044 157.607 127.179 157.607Z" stroke="#2E2E2E" stroke-width="0.5" stroke-miterlimit="10" stroke-linecap="round" stroke-linejoin="round"/>
<path d="M172.715 157.607C181.85 157.607 189.256 150.202 189.256 141.067C189.256 131.932 181.85 124.526 172.715 124.526C163.58 124.526 156.174 131.932 156.174 141.067C156.174 150.202 163.58 157.607 172.715 157.607Z" stroke="#2E2E2E" stroke-width="0.5" stroke-miterlimit="10" stroke-linecap="round" stroke-linejoin="round"/>
<path d="M143.728 139.117C145.556 138.052 147.68 137.443 149.946 137.443C152.245 137.443 154.397 138.07 156.242 139.162" stroke="#2E2E2E" stroke-width="0.5" stroke-miterlimit="10" stroke-linecap="round" stroke-linejoin="round"/>
<path d="M110.638 141.067L101.284 128.61" stroke="#2E2E2E" stroke-width="0.5" stroke-miterlimit="10" stroke-linecap="round" stroke-linejoin="round"/>
<path d="M188.949 141.067L198.306 128.61" stroke="#2E2E2E" stroke-width="0.5" stroke-miterlimit="10" stroke-linecap="round" stroke-linejoin="round"/>
<path d="M157.743 124.287C158.7 121.958 160.601 120.243 162.709 119.058C164.841 117.886 167.258 117.247 169.702 117.166C172.147 117.082 174.594 117.571 176.793 118.594C178.972 119.631 180.976 121.199 182.119 123.445L175.602 123.268C173.628 123.232 171.751 123.24 169.893 123.295C168.035 123.353 166.166 123.459 164.204 123.625C162.228 123.783 160.216 124.009 157.743 124.287Z" fill="#2E2E2E"/>
<path d="M141.847 124.287C139.372 124.009 137.362 123.783 135.384 123.625C133.424 123.459 131.555 123.351 129.697 123.295C127.837 123.242 125.962 123.232 123.988 123.268L117.471 123.445C118.614 121.199 120.618 119.631 122.797 118.594C124.996 117.569 127.443 117.08 129.888 117.166C132.332 117.247 134.749 117.886 136.881 119.058C138.989 120.243 140.89 121.958 141.847 124.287Z" fill="#2E2E2E"/>
<path d="M158.881 140.716C159.321 139.738 159.812 138.79 160.277 137.827L160.315 137.768C161.474 136.027 162.926 134.345 164.868 133.246C166.773 132.114 169.065 131.542 171.289 131.68C173.498 131.789 175.675 132.452 177.552 133.595C178.489 134.159 179.343 134.834 180.133 135.565C180.918 136.281 181.624 137.153 181.914 138.212L181.918 138.23C181.989 138.49 181.837 138.756 181.577 138.827C181.465 138.857 181.352 138.845 181.254 138.803C180.21 138.344 179.53 137.74 178.777 137.145C178.031 136.563 177.233 136.058 176.406 135.634C174.768 134.773 172.967 134.276 171.145 134.132C169.333 133.986 167.524 134.311 165.878 135.11C164.243 135.926 162.766 137.167 161.5 138.644L161.539 138.588C160.904 139.448 160.297 140.326 159.638 141.174C159.488 141.369 159.208 141.403 159.013 141.253C158.848 141.121 158.798 140.898 158.881 140.716Z" fill="#2E2E2E"/>
<path d="M166.357 136.958C166.505 134.903 168.29 133.357 170.346 133.505C172.401 133.653 173.947 135.439 173.799 137.494C173.65 139.549 171.865 141.095 169.81 140.947C167.755 140.799 166.209 139.014 166.357 136.958Z" fill="#2E2E2E"/>
<path d="M177.607 140.363C178.978 140.056 180.279 139.434 181.376 138.555" stroke="#2E2E2E" stroke-width="0.5" stroke-miterlimit="10" stroke-linecap="round" stroke-linejoin="round"/>
<path d="M139.95 141.172C139.293 140.324 138.684 139.448 138.049 138.586L138.088 138.642C136.822 137.167 135.345 135.926 133.71 135.108C132.064 134.309 130.257 133.982 128.443 134.13C126.621 134.276 124.82 134.771 123.182 135.632C122.357 136.056 121.559 136.561 120.811 137.143C120.056 137.737 119.376 138.344 118.334 138.801C118.088 138.908 117.802 138.796 117.695 138.551C117.648 138.446 117.642 138.332 117.67 138.228L117.676 138.21C117.966 137.151 118.67 136.279 119.458 135.563C120.247 134.834 121.101 134.159 122.038 133.593C123.913 132.45 126.092 131.789 128.301 131.68C130.525 131.542 132.817 132.114 134.722 133.246C136.664 134.345 138.116 136.027 139.275 137.768L139.313 137.827C139.778 138.79 140.269 139.738 140.709 140.716C140.811 140.941 140.711 141.203 140.486 141.304C140.293 141.391 140.074 141.33 139.95 141.172Z" fill="#2E2E2E"/>
<path d="M133.233 136.958C133.085 134.903 131.3 133.357 129.245 133.505C127.189 133.653 125.643 135.439 125.792 137.494C125.94 139.549 127.725 141.095 129.78 140.947C131.835 140.799 133.381 139.014 133.233 136.958Z" fill="#2E2E2E"/>
<path d="M121.984 140.363C120.612 140.056 119.312 139.434 118.214 138.555" stroke="#2E2E2E" stroke-width="0.5" stroke-miterlimit="10" stroke-linecap="round" stroke-linejoin="round"/>
<path d="M143.33 157.409C144.882 155.412 147.315 154.189 149.78 154.169C152.245 154.148 154.689 155.329 156.26 157.301" stroke="#2E2E2E" stroke-width="0.4638" stroke-miterlimit="10" stroke-linecap="round" stroke-linejoin="round"/>
<path d="M150.188 171.537C151.849 171.527 153.511 171.421 155.16 171.221C155.665 171.16 160.603 170.48 160.569 170.17C160.569 170.17 158.027 168.216 157.144 167.465L156.753 167.114C155.807 166.268 154.829 165.392 153.598 164.952C152.395 164.538 150.784 164.72 149.855 165.775C148.952 164.694 147.349 164.469 146.128 164.852C144.892 165.258 143.892 166.108 142.922 166.928L142.527 167.262C141.622 167.987 139.025 169.878 139.025 169.878C138.989 170.281 143.282 171.024 143.775 171.095C145.584 171.357 147.41 171.503 149.24 171.531C149.553 171.537 149.869 171.539 150.188 171.537Z" fill="#2E2E2E"/>
<path d="M143.832 174.761C147.575 176.98 152.499 177.051 156.305 174.939L143.832 174.761Z" fill="#F5F5FF"/>
<path d="M143.832 174.761C147.575 176.98 152.499 177.051 156.305 174.939" stroke="#2E2E2E" stroke-width="0.5086" stroke-miterlimit="10" stroke-linecap="round" stroke-linejoin="round"/>
<path d="M46.5308 344.483C63.0066 351.919 78.0501 354.209 80.1276 349.602C82.2071 344.994 70.5355 335.232 54.0597 327.796C37.5839 320.361 22.5404 318.07 20.4609 322.678C18.3834 327.287 30.053 337.05 46.5308 344.483Z" fill="#2E2E2E"/>
<path d="M68.6265 356.074L85.3437 316.33L88.1028 309.736L92.6676 298.882L95.6905 291.7L100.823 279.446L105.246 268.937C111.373 254.35 105.55 238.12 92.6067 233.575C90.3548 232.784 88.0217 232.399 85.7291 232.399C83.6801 232.399 81.6513 232.703 79.6631 233.271C71.6493 235.523 64.508 242.198 61.2417 251.51L51.5846 279.101L46.7967 292.775L24.8452 355.485C24.7844 355.688 24.7032 355.871 24.6423 356.074" fill="#F5F5FF"/>
<path d="M68.6265 356.074L85.3437 316.33L88.1028 309.736L92.6676 298.882L95.6905 291.7L100.823 279.446L105.246 268.937C111.373 254.35 105.55 238.12 92.6067 233.575C90.3548 232.784 88.0217 232.399 85.7291 232.399C83.6801 232.399 81.6513 232.703 79.6631 233.271C71.6493 235.523 64.508 242.198 61.2417 251.51L51.5846 279.101L46.7967 292.775L24.8452 355.485C24.7844 355.688 24.7032 355.871 24.6423 356.074" stroke="#2E2E2E" stroke-width="0.5" stroke-miterlimit="10" stroke-linecap="round" stroke-linejoin="round"/>
<path d="M20.6516 322.162C23.6968 318.318 38.1296 320.738 53.8852 327.831C70.365 335.272 82.0508 345.035 79.9531 349.655C79.9024 349.754 79.8537 349.829 79.7786 349.928L79.9531 350.003L115.568 265.212C122.71 248.459 114.994 229.356 98.764 223.689C95.6924 222.616 92.5721 222.09 89.4498 222.09C78.3382 222.09 67.6769 228.682 62.2073 239.37L20.6516 322.162Z" fill="#2E2E2E"/>
<path d="M48.2453 292.776C49.3825 292.776 50.3045 291.854 50.3045 290.716C50.3045 289.579 49.3825 288.657 48.2453 288.657C47.108 288.657 46.186 289.579 46.186 290.716C46.186 291.854 47.108 292.776 48.2453 292.776Z" fill="#F5F5FF"/>
<path d="M52.1001 314.93C52.1001 316.543 53.4067 317.849 55.0195 317.849C56.6324 317.849 57.939 316.543 57.939 314.93C57.939 313.317 56.6324 312.01 55.0195 312.01C53.4067 312.01 52.1001 313.317 52.1001 314.93Z" fill="#F5F5FF"/>
<path d="M63.7613 276.72C63.7613 278.085 62.6556 279.191 61.2923 279.191C59.9289 279.191 58.8232 278.085 58.8232 276.72C58.8232 275.356 59.9289 274.251 61.2923 274.251C62.6556 274.251 63.7613 275.356 63.7613 276.72Z" fill="#F5F5FF"/>
<path d="M253.518 344.483C237.042 351.919 221.999 354.209 219.919 349.602C217.84 344.994 229.511 335.232 245.987 327.796C262.463 320.361 277.506 318.07 279.586 322.678C281.665 327.287 269.994 337.05 253.518 344.483Z" fill="#2E2E2E"/>
<path d="M231.422 356.074L214.705 316.33L211.946 309.736L207.381 298.882L204.358 291.7L199.225 279.446L194.803 268.937C188.676 254.35 194.498 238.12 207.442 233.575C209.694 232.784 212.027 232.399 214.32 232.399C216.369 232.399 218.398 232.703 220.386 233.271C228.399 235.523 235.541 242.198 238.807 251.51L248.464 279.101L253.252 292.775L275.204 355.485C275.264 355.688 275.346 355.871 275.406 356.074" fill="#F5F5FF"/>
<path d="M231.422 356.074L214.705 316.33L211.946 309.736L207.381 298.882L204.358 291.7L199.225 279.446L194.803 268.937C188.676 254.35 194.498 238.12 207.442 233.575C209.694 232.784 212.027 232.399 214.32 232.399C216.369 232.399 218.398 232.703 220.386 233.271C228.399 235.523 235.541 242.198 238.807 251.51L248.464 279.101L253.252 292.775L275.204 355.485C275.264 355.688 275.346 355.871 275.406 356.074" stroke="#2E2E2E" stroke-width="0.5" stroke-miterlimit="10" stroke-linecap="round" stroke-linejoin="round"/>
<path d="M279.395 322.162C276.35 318.318 261.917 320.738 246.161 327.831C229.682 335.272 217.996 345.035 220.094 349.655C220.144 349.754 220.193 349.829 220.268 349.928L220.094 350.003L184.478 265.212C177.337 248.459 185.052 229.356 201.283 223.689C204.354 222.616 207.475 222.09 210.597 222.09C221.708 222.09 232.37 228.682 237.839 239.37L279.395 322.162Z" fill="#2E2E2E"/>
<path d="M229.983 244.421C229.983 245.537 229.079 246.442 227.963 246.442C226.847 246.442 225.942 245.537 225.942 244.421C225.942 243.305 226.847 242.401 227.963 242.401C229.079 242.399 229.983 243.303 229.983 244.421Z" fill="#F5F5FF"/>
<path d="M251.803 292.775C252.94 292.775 253.862 291.853 253.862 290.716C253.862 289.579 252.94 288.657 251.803 288.657C250.666 288.657 249.744 289.579 249.744 290.716C249.744 291.853 250.666 292.775 251.803 292.775Z" fill="#F5F5FF"/>
<path d="M236.719 275.857C236.719 277.221 235.613 278.326 234.248 278.326C232.884 278.326 231.779 277.221 231.779 275.857C231.779 274.494 232.884 273.388 234.248 273.388C235.613 273.388 236.719 274.494 236.719 275.857Z" fill="#F5F5FF"/>
<path d="M247.946 314.93C247.946 316.543 246.64 317.849 245.027 317.849C243.414 317.849 242.108 316.543 242.108 314.93C242.108 313.317 243.414 312.01 245.027 312.01C246.64 312.01 247.946 313.317 247.946 314.93Z" fill="#F5F5FF"/>
<path d="M224.145 321.217C224.145 322.333 223.24 323.238 222.124 323.238C221.008 323.238 220.104 322.333 220.104 321.217C220.104 320.101 221.008 319.196 222.124 319.196C223.24 319.196 224.145 320.101 224.145 321.217Z" fill="#F5F5FF"/>
<path d="M224.504 259.26L219.31 284.092C220.345 286.364 221.157 288.758 221.704 291.254C222.272 293.851 222.577 296.529 222.577 299.288C222.577 302.574 222.151 305.78 221.319 308.823C220.629 311.461 219.655 313.976 218.418 316.33C216.389 320.225 213.711 323.735 210.485 326.676L204.379 356.074H94.4791L88.3725 325.845C86.1611 323.694 84.2134 321.239 82.5904 318.582C80.663 315.417 79.182 311.947 78.2691 308.255C77.559 305.394 77.1735 302.392 77.1735 299.288C77.1735 296.143 77.5793 293.08 78.3097 290.158C78.7763 288.312 79.3646 286.527 80.0747 284.802L74.9216 259.26C72.7102 249.846 73.1362 240.636 76.4634 233.697C79.2023 227.935 83.9497 223.756 90.8475 222.275C92.5923 221.91 94.4994 221.707 96.5485 221.707H205.575C207.604 221.707 209.471 221.91 211.175 222.275C217.708 223.695 221.867 227.732 224.098 233.271C226.959 240.27 226.756 249.664 224.504 259.26Z" fill="#2E2E2E"/>
<path d="M224.669 259.25C223.906 263.409 223.202 267.582 222.38 271.729C221.581 275.882 220.794 280.035 219.933 284.175L219.903 283.897C221.526 287.464 222.611 291.29 223.033 295.196C223.443 299.103 223.214 303.063 222.411 306.9C221.615 310.742 220.108 314.412 218.136 317.778C216.158 321.15 213.569 324.124 210.662 326.678C213.447 323.978 215.768 320.85 217.631 317.488C219.493 314.12 220.771 310.464 221.546 306.719C223.054 299.213 222.183 291.266 219.081 284.269C219.041 284.179 219.033 284.08 219.051 283.991C219.917 279.852 220.854 275.73 221.784 271.603C222.682 267.474 223.707 263.368 224.669 259.25Z" fill="white"/>
<path d="M88.5409 325.851C85.8426 323.315 83.4507 320.405 81.6146 317.149C79.7907 313.895 78.4091 310.367 77.6524 306.693C76.9099 303.019 76.6806 299.235 77.0438 295.496C77.3907 291.755 78.3706 288.085 79.8273 284.632L79.8009 284.9C78.1008 276.377 76.5589 267.821 75.0981 259.252C77.0742 267.72 78.9671 276.202 80.7017 284.719C80.7199 284.81 80.7078 284.906 80.6753 284.987C77.904 291.757 77.1067 299.328 78.5126 306.52C79.2207 310.111 80.4014 313.619 82.1158 316.877C83.8301 320.13 85.9684 323.179 88.5409 325.851Z" fill="white"/>
<path d="M171.644 220.427L182.691 222.084C177.781 234.825 165.182 244.665 151.427 245.253C136.658 245.902 122.294 235.799 117.08 222.084L127.818 219.516" fill="#F5F5FF"/>
<path d="M171.644 220.427L182.691 222.084C177.781 234.825 165.182 244.665 151.427 245.253C136.658 245.902 122.294 235.799 117.08 222.084L127.818 219.516" stroke="#2E2E2E" stroke-width="0.5" stroke-miterlimit="10" stroke-linecap="round" stroke-linejoin="round"/>
<path d="M100.622 273.612C100.622 274.977 99.5165 276.083 98.1531 276.083C96.7898 276.083 95.6841 274.977 95.6841 273.612C95.6841 272.248 96.7898 271.142 98.1531 271.142C99.5165 271.142 100.622 272.248 100.622 273.612Z" fill="#F5F5FF"/>
<path d="M124.874 334.242C124.874 336.847 122.762 338.957 120.159 338.957C117.555 338.957 115.445 336.845 115.445 334.242C115.445 331.639 117.557 329.527 120.159 329.527C122.762 329.525 124.874 331.637 124.874 334.242Z" fill="#F5F5FF"/>
<path d="M197.18 294.496C197.18 296.232 195.772 297.64 194.036 297.64C192.299 297.64 190.891 296.232 190.891 294.496C190.891 292.759 192.299 291.353 194.036 291.353C195.772 291.351 197.18 292.759 197.18 294.496Z" fill="#F5F5FF"/>
<path d="M154.29 291.802C157.886 291.802 160.802 288.886 160.802 285.289C160.802 281.692 157.886 278.777 154.29 278.777C150.693 278.777 147.777 281.692 147.777 285.289C147.777 288.886 150.693 291.802 154.29 291.802Z" fill="#F5F5FF"/>
<path d="M208.856 237.235C208.856 238.599 207.75 239.704 206.385 239.704C205.021 239.704 203.916 238.599 203.916 237.235C203.916 235.872 205.021 234.766 206.385 234.766C207.75 234.764 208.856 235.87 208.856 237.235Z" fill="#F5F5FF"/>
<path d="M100.622 240.378C100.622 242.983 98.5102 245.093 95.9073 245.093C93.3023 245.093 91.1924 242.981 91.1924 240.378C91.1924 237.773 93.3043 235.663 95.9073 235.663C98.5102 235.663 100.622 237.775 100.622 240.378Z" fill="#F5F5FF"/>
<path d="M178.99 341.653C181.099 341.653 182.808 339.944 182.808 337.835C182.808 335.726 181.099 334.017 178.99 334.017C176.882 334.017 175.172 335.726 175.172 337.835C175.172 339.944 176.882 341.653 178.99 341.653Z" fill="#F5F5FF"/>
<path d="M99.2751 316.502C101.259 316.502 102.868 314.893 102.868 312.909C102.868 310.925 101.259 309.316 99.2751 309.316C97.2908 309.316 95.6821 310.925 95.6821 312.909C95.6821 314.893 97.2908 316.502 99.2751 316.502Z" fill="#F5F5FF"/>
<path d="M189.994 261.262C189.994 262.999 188.586 264.407 186.852 264.407C185.117 264.407 183.707 262.999 183.707 261.262C183.707 259.526 185.115 258.12 186.852 258.12C188.588 258.12 189.994 259.526 189.994 261.262Z" fill="#F5F5FF"/>
<path d="M136.102 266.202C138.086 266.202 139.695 264.594 139.695 262.609C139.695 260.625 138.086 259.016 136.102 259.016C134.117 259.016 132.509 260.625 132.509 262.609C132.509 264.594 134.117 266.202 136.102 266.202Z" fill="#F5F5FF"/>
<path d="M156.761 343.897C156.761 344.889 155.957 345.692 154.965 345.692C153.973 345.692 153.17 344.889 153.17 343.897C153.17 342.905 153.973 342.101 154.965 342.101C155.955 342.101 156.761 342.905 156.761 343.897Z" fill="#F5F5FF"/>
</svg>
