<svg width="409" height="356" viewBox="0 0 409 356" fill="none" xmlns="http://www.w3.org/2000/svg">
<path d="M240.316 337.519C213.094 346.877 184.351 353.057 155.627 351.192C126.903 349.328 98.0904 338.836 77.6889 318.53C57.2875 298.224 46.5137 267.455 53.7106 239.584C59.18 218.403 74.1599 200.167 76.9733 178.473C79.4642 159.259 72.0345 140.195 71.0519 120.844C69.4756 89.7738 86.7938 57.7734 115.014 44.6768C143.232 31.5802 180.683 40.2932 198.043 66.1086C205.22 76.7821 209.283 89.9975 219.392 97.9486C231.899 107.788 249.78 106.506 265.191 102.537C280.601 98.5686 296.01 92.3512 311.845 93.9275C336.413 96.3722 356.154 118.358 360.977 142.572C365.801 166.785 357.88 192.142 344.597 212.954C335.793 226.749 324.216 240.29 323.801 256.65C323.619 263.835 325.678 270.907 325.831 278.091C326.255 297.936 311.791 315.681 294.29 325.045C276.786 334.408 260.011 335.059 240.316 337.519Z" fill="#E3E3E4"/>
<path d="M268.789 241.416C271.903 239.156 276.356 241.977 278.119 245.398C280.294 249.621 280.519 254.877 284.881 257.782C287.022 259.208 289.977 259.043 291.567 257.022C293.094 255.082 292.312 252.771 291.322 250.846C289.252 246.822 286.228 243.344 284.196 239.3C281.832 234.594 280.98 228.517 284.961 224.5C287.62 221.818 292.03 221.528 294.516 224.371C296.835 227.019 295.972 230.795 295.963 234.19C295.954 237.382 297.782 241.334 300.962 241.041C302.053 232.282 303.145 223.521 304.235 214.762C304.706 210.983 305.259 206.988 308.225 204.295C310.237 202.468 313.264 201.941 315.482 203.51C318.985 205.987 317.653 211.476 316.338 215.627C315.007 219.833 315.294 226.058 319.655 226.734C325.448 214.888 331.514 203.178 337.85 191.615C339.851 187.964 341.993 184.192 345.842 182.241C346.938 181.686 348.152 181.351 349.382 181.31C355.428 181.101 357.49 186.574 356.635 191.045C356.045 194.144 354.313 196.888 352.616 199.549C345.178 211.205 337.741 222.861 330.302 234.517C336.428 238.023 341.981 225.165 349.062 227.895C352.875 229.365 353.938 233.707 351.843 237.214C348.097 243.489 340.96 243.657 334.638 244.963C329.501 246.025 323.81 248.873 323.025 254.059L331.008 253.319C335.801 252.874 337.855 259.22 333.731 261.703C329.23 264.413 324.007 265.929 318.751 265.872C319.723 268.966 324.101 268.9 327.236 268.069C330.567 267.185 335.108 266.639 336.3 270.176C337.321 273.202 335.188 276.193 332.057 276.828C321.954 278.88 296.025 291.186 285.856 280.683C280.951 275.616 277.169 268.686 274.371 262.28C273.367 259.977 266.517 243.065 268.789 241.416Z" fill="#323DA0"/>
<path d="M168.065 291.518C165.495 288.654 167.843 283.932 171.063 281.827C175.04 279.228 180.244 278.463 182.684 273.825C183.881 271.548 183.412 268.626 181.238 267.251C179.152 265.933 176.934 266.947 175.121 268.132C171.332 270.606 168.185 273.972 164.371 276.41C159.935 279.247 153.978 280.721 149.571 277.175C146.63 274.806 145.886 270.452 148.458 267.683C150.853 265.104 154.698 265.572 158.076 265.232C161.253 264.911 164.994 262.686 164.375 259.555C155.55 259.373 146.724 259.191 137.898 259.009C134.092 258.93 130.06 258.791 127.075 256.12C125.052 254.307 124.214 251.351 125.545 248.983C127.647 245.243 133.246 246.003 137.51 246.882C141.831 247.774 147.993 246.845 148.215 242.439C135.836 237.898 123.562 233.07 111.407 227.96C107.57 226.347 103.598 224.605 101.261 220.977C100.597 219.944 100.138 218.77 99.9704 217.553C99.139 211.561 104.371 208.945 108.907 209.334C112.051 209.602 114.96 211.041 117.779 212.456C130.14 218.651 142.501 224.849 154.862 231.045C157.717 224.59 144.356 220.391 146.341 213.066C147.41 209.122 151.62 207.617 155.324 209.34C161.952 212.42 162.854 219.501 164.806 225.656C166.391 230.654 169.811 236.022 175.049 236.269L173.489 228.404C172.553 223.683 178.653 220.985 181.548 224.832C184.707 229.03 186.756 234.068 187.24 239.303C190.217 238.016 189.7 233.668 188.549 230.636C187.328 227.414 186.316 222.952 189.709 221.402C192.614 220.075 195.81 221.887 196.764 224.935C199.846 234.773 214.761 259.296 205.362 270.493C200.827 275.895 194.324 280.371 188.241 283.814C186.055 285.051 169.939 293.608 168.065 291.518Z" fill="#323DA0"/>
<path d="M108.321 272.088L31.8636 318.453H1L77.4727 272.088H108.321Z" fill="#F5F5FF" stroke="#2E2E2E" stroke-width="0.5" stroke-miterlimit="10"/>
<path d="M407.78 272.088L331.307 318.453H54.7222L131.164 272.088H407.78Z" fill="#F5F5FF" stroke="#2E2E2E" stroke-width="0.5" stroke-miterlimit="10"/>
<path d="M131.164 272.088L54.7223 318.453H31.8638L108.321 272.088H131.164Z" fill="#32A095"/>
<path d="M359.688 272.088L283.246 318.453H260.387L336.845 272.088H359.688Z" fill="#32A095"/>
<path d="M249.216 44.7631C251.48 42.8459 251.284 39.5976 250.107 36.8737C248.931 34.1498 245.866 32.373 242.918 32.7061C245.284 31.0465 244.965 27.647 243.623 25.0866C242.281 22.5262 238.925 21.2352 236.213 22.2347C238.735 20.2234 238.819 16.8995 237.182 14.1201C236.497 12.9571 235.433 12.064 234.211 11.501C233.52 8.83113 231.981 6.38023 229.748 4.75145C227.955 3.44502 225.791 2.73242 223.583 2.58281C221.013 0.846052 217.738 -0.167291 215.001 1.17306C207.235 -1.61561 197.898 0.691826 192.327 6.77664C191.392 7.79771 190.533 8.96993 190.305 10.335C190.078 11.7 190.661 13.281 191.935 13.8208C188.473 12.135 185.403 13.4522 182.75 16.2455C180.097 19.0373 179.511 23.5858 181.371 26.9591C178.398 27.0562 175.999 30.5529 175.297 33.4449C174.594 36.3369 176.024 39.613 178.621 41.0644C174.953 41.4392 173.596 46.4814 174.702 49.9996C175.425 52.3024 177.671 53.8834 180.039 54.2043C178.004 55.213 176.194 57.1518 175.364 59.0551C174.05 62.0721 175.111 65.9374 177.782 67.8592C180.454 69.7811 184.456 69.5589 186.899 67.3533C186.065 69.6623 187.792 72.798 189.978 73.9163C192.164 75.0345 194.847 74.7924 197.115 73.8499C199.382 72.9075 201.322 71.3373 203.227 69.7872C202.439 70.2577 203.611 71.4453 203.962 72.2936C204.313 73.1404 205.077 73.7466 205.873 74.2032C210.293 76.7435 216.578 75.2443 219.376 70.981C219.233 74.0257 221.574 76.8808 224.621 76.9671C227.667 77.0535 230.508 74.3219 230.539 71.2741C232.501 74.2263 236.107 74.9851 238.905 72.8088C241.701 70.6324 242.105 65.9991 239.727 63.3723C242.306 65.6736 246.816 67.071 248.946 64.3487C251.076 61.6263 250.385 57.1564 247.532 55.2053C250.714 55.8839 254.402 54.6376 254.815 51.4094C255.222 48.1796 252.466 44.9066 249.216 44.7631Z" fill="#2E2E2E"/>
<path d="M223.836 81.7255C224.05 88.2406 218.94 93.6437 212.567 93.6437C206.328 93.6437 201.298 88.4627 201.298 82.108C201.298 81.9831 201.298 81.8504 201.307 81.7255L202.563 64.5199L202.723 62.3034L203.507 51.6129H221.63L222.44 62.7044L222.617 65.126L223.836 81.7255Z" fill="#F5F5FF" stroke="#2E2E2E" stroke-width="0.5" stroke-miterlimit="10" stroke-linecap="round" stroke-linejoin="round"/>
<path d="M223.297 73.1805C217.585 73.8792 211.144 71.1322 206.782 65.5579C205.01 63.3029 203.779 60.8212 203.07 58.3101L203.582 51.3677H221.702L222.509 62.4561L222.695 64.8793L223.297 73.1805Z" fill="#2E2E2E"/>
<path d="M229.337 35.3498C227.06 39.0053 227.281 43.338 229.829 45.0238C232.377 46.7112 236.289 45.1133 238.565 41.4577C240.842 37.8022 240.621 33.4711 238.073 31.7837C235.525 30.0979 231.614 31.6943 229.337 35.3498Z" fill="#F5F5FF" stroke="#2E2E2E" stroke-width="0.5" stroke-miterlimit="10" stroke-linecap="round" stroke-linejoin="round"/>
<path d="M236.156 33.539C237.259 33.9693 238.098 35.0182 238.277 36.1889C238.456 37.3596 237.969 38.6105 237.043 39.3508" stroke="#2E2E2E" stroke-width="0.5" stroke-miterlimit="10" stroke-linecap="round" stroke-linejoin="round"/>
<path d="M195.651 35.3498C197.928 39.0053 197.707 43.338 195.159 45.0238C192.611 46.7112 188.7 45.1133 186.423 41.4577C184.146 37.8022 184.367 33.4711 186.915 31.7837C189.463 30.0979 193.375 31.6943 195.651 35.3498Z" fill="#F5F5FF" stroke="#2E2E2E" stroke-width="0.5" stroke-miterlimit="10" stroke-linecap="round" stroke-linejoin="round"/>
<path d="M188.832 33.539C187.729 33.9693 186.89 35.0182 186.711 36.1889C186.532 37.3596 187.02 38.6105 187.945 39.3508" stroke="#2E2E2E" stroke-width="0.5" stroke-miterlimit="10" stroke-linecap="round" stroke-linejoin="round"/>
<path d="M235.229 28.5123C235.229 28.8486 235.229 29.174 235.205 29.481C235.168 30.4388 235.08 31.3951 234.944 32.3298L234.8 33.6702L234.733 34.3951L234.628 35.4455C234.566 36.084 234.523 36.7103 234.478 37.3365C234.453 37.7375 234.429 38.1324 234.404 38.5257C234.305 40.1159 234.211 41.6814 233.975 43.2485C233.975 43.2717 233.963 43.301 233.963 43.3241C233.914 43.6202 233.863 43.9226 233.801 44.2172C233.739 44.5426 233.678 44.8604 233.584 45.175C233.471 45.6455 233.335 46.1205 233.173 46.6017C233.124 46.776 233.061 46.938 232.993 47.1123C232.868 47.4608 232.72 47.8079 232.57 48.1688C232.154 49.085 231.662 49.9842 231.097 50.8788C228.742 54.6038 225.137 58.0094 221.52 60.2721C221.508 60.2953 221.483 60.3076 221.471 60.3076C221.03 60.5914 220.589 60.8536 220.154 61.0912C215.747 63.5282 210.534 63.6623 205.965 61.5616C205.021 61.1266 204.106 60.6331 203.224 60.0469C203.212 60.0469 203.2 60.0469 203.187 60.0238C199.689 57.7611 196.687 54.4819 194.425 50.8788C194.263 50.629 194.115 50.3791 193.959 50.1184C193.885 49.9858 193.809 49.8454 193.735 49.7128C193.61 49.486 193.487 49.2485 193.356 49.0172C192.995 48.3971 192.679 47.7462 192.392 47.1138C192.318 46.9395 192.23 46.7652 192.162 46.5801C191.099 44.0444 190.72 41.2125 190.472 38.4285C190.428 37.9935 190.391 37.5524 190.354 37.1175C190.311 36.6301 190.266 36.1427 190.229 35.6614L190.106 34.3565C190.075 34.2115 190.05 34.0727 190.024 33.9324C189.987 33.7751 189.963 33.6193 189.944 33.4619C189.831 32.865 189.745 32.2666 189.677 31.6465C189.566 30.6424 189.503 29.5874 189.503 28.5139C189.503 28.4275 189.503 28.3288 189.515 28.2409C189.515 27.5684 189.546 26.9067 189.603 26.2512C189.653 25.6943 189.727 25.1422 189.821 24.6039C190.342 21.2969 191.511 18.2214 193.202 15.5237C193.624 14.845 194.078 14.1957 194.562 13.5679C199.39 7.3227 207.643 3.68877 216.079 5.04764C222.827 6.13504 228.305 10.2934 231.6 15.6394C231.699 15.7782 231.78 15.9232 231.879 16.0805C233.358 18.6286 234.415 21.482 234.905 24.5406C234.905 24.5638 234.918 24.5807 234.918 24.6039C235.004 25.1437 235.073 25.6943 235.123 26.2512C235.185 26.9067 235.215 27.5684 235.215 28.2409C235.229 28.3273 235.229 28.426 235.229 28.5123Z" fill="#F5F5FF" stroke="#2E2E2E" stroke-width="0.5" stroke-miterlimit="10" stroke-linecap="round" stroke-linejoin="round"/>
<path d="M215.208 1.77615C217.63 3.99568 218.222 7.81468 216.58 10.608C214.937 13.4013 211.21 14.9129 207.959 14.1031C208.968 15.6131 208.175 17.9283 207.091 19.3889C206.006 20.8496 203.956 21.5915 202.127 21.1874C203.676 26.009 200.517 31.6604 195.934 34.1807C197.173 36.5714 196.511 40.3843 195.203 42.7411C193.895 45.0979 191.358 46.7976 188.586 47.1678C190.417 49.2284 191.067 52.5215 190.099 55.0603C189.132 57.5991 186.668 59.5641 183.876 60.0238C181.598 60.3986 178.118 59.8155 177.126 57.8243C176.134 55.833 176.77 53.2264 178.581 51.8567C177.532 49.7189 176.884 47.7199 176.751 45.3631C176.588 42.4418 177.194 39.4202 178.871 36.9693C180.547 34.5185 183.378 32.7107 186.444 32.5611C183.799 28.8069 183.146 24.3432 185.074 20.211C187.002 16.0789 191.255 13.0142 195.951 12.371C195.905 9.78589 196.903 7.29335 199.004 5.65531C201.103 4.01727 204.003 3.35557 206.653 3.90929C207.334 2.35917 209.77 1.44608 211.511 1.17616C213.253 0.906237 215.117 1.54478 216.28 2.80956" fill="#2E2E2E"/>
<path d="M217.238 2.9345C215.463 6.04091 215.563 10.1314 217.491 13.1452C219.419 16.1607 223.088 17.9684 226.653 17.6614C224.993 19.5108 225.28 22.5709 226.826 24.5159C228.371 26.4609 231.373 27.064 233.549 25.8655C232.437 26.8002 231.299 28.2115 231.194 29.6614C231.089 31.1112 231.92 32.6691 233.305 33.1087C234.69 33.5483 236.432 32.5056 236.443 31.0526C236.475 26.9622 238.98 23.1185 237.603 19.2671C236.225 15.4157 233.128 12.2167 229.323 10.716C227.969 5.45017 222.675 2.862 217.238 2.9345Z" fill="#2E2E2E"/>
<path d="M193.641 37.4937C193.641 33.0593 197.236 29.4655 201.669 29.4655C206.104 29.4655 209.698 33.0608 209.698 37.4937C209.698 41.9282 206.102 45.522 201.669 45.522C197.236 45.522 193.641 41.9266 193.641 37.4937Z" stroke="#2E2E2E" stroke-width="0.5" stroke-miterlimit="10" stroke-linecap="round" stroke-linejoin="round"/>
<path d="M215.746 37.4937C215.746 33.0593 219.341 29.4655 223.774 29.4655C228.208 29.4655 231.802 33.0608 231.802 37.4937C231.802 41.9282 228.208 45.522 223.774 45.522C219.339 45.522 215.746 41.9266 215.746 37.4937Z" stroke="#2E2E2E" stroke-width="0.5" stroke-miterlimit="10" stroke-linecap="round" stroke-linejoin="round"/>
<path d="M209.704 36.5467C210.591 36.03 211.623 35.7339 212.722 35.7339C213.838 35.7339 214.883 36.0377 215.778 36.5683" stroke="#2E2E2E" stroke-width="0.5" stroke-miterlimit="10" stroke-linecap="round" stroke-linejoin="round"/>
<path d="M193.641 37.4937L189.1 31.4459" stroke="#2E2E2E" stroke-width="0.5" stroke-miterlimit="10" stroke-linecap="round" stroke-linejoin="round"/>
<path d="M231.654 37.4937L236.195 31.4459" stroke="#2E2E2E" stroke-width="0.5" stroke-miterlimit="10" stroke-linecap="round" stroke-linejoin="round"/>
<path d="M216.506 29.3483C216.97 28.2177 217.894 27.3864 218.917 26.811C219.952 26.2419 221.126 25.9319 222.312 25.8918C223.498 25.8517 224.686 26.0892 225.753 26.5859C226.811 27.0887 227.784 27.8491 228.338 28.9411L225.174 28.8547C224.217 28.8362 223.305 28.8408 222.403 28.8671C221.5 28.8948 220.594 28.9473 219.642 29.0275C218.682 29.1031 217.706 29.2126 216.506 29.3483Z" fill="#2E2E2E"/>
<path d="M208.789 29.3483C207.588 29.2126 206.613 29.1046 205.652 29.0275C204.7 28.9457 203.793 28.8948 202.891 28.8671C201.989 28.8408 201.077 28.8362 200.119 28.8547L196.957 28.9411C197.511 27.8506 198.486 27.0902 199.542 26.5859C200.61 26.0892 201.797 25.8517 202.983 25.8918C204.17 25.9303 205.343 26.2419 206.378 26.811C207.402 27.3848 208.325 28.2177 208.789 29.3483Z" fill="#2E2E2E"/>
<path d="M217.118 37.358L217.836 35.9791L217.839 35.9745L217.848 35.9606C218.419 35.137 219.127 34.3549 220.044 33.8444C220.948 33.32 222.023 33.0624 223.069 33.138C224.109 33.1935 225.14 33.4912 226.026 34.0341C226.888 34.577 227.758 35.2156 228.185 36.1534C228.222 36.2274 228.193 36.3169 228.119 36.3539C228.072 36.377 228.012 36.3709 227.971 36.3462C227.124 35.7956 226.516 35.0968 225.66 34.685C224.84 34.2562 223.94 33.9925 223.023 33.9231C222.11 33.8598 221.193 34.0387 220.374 34.4521C219.557 34.8701 218.841 35.5087 218.235 36.2459L218.247 36.2274L217.365 37.5061C217.32 37.5724 217.229 37.5878 217.165 37.5431C217.104 37.503 217.086 37.4228 217.118 37.358Z" fill="#2E2E2E"/>
<path d="M220.687 35.4978C220.76 34.4999 221.627 33.7503 222.623 33.8212C223.621 33.8937 224.37 34.7606 224.3 35.757C224.227 36.7549 223.36 37.5045 222.364 37.4336C221.364 37.3626 220.615 36.4958 220.687 35.4978Z" fill="#2E2E2E"/>
<path d="M226.147 37.1513C226.814 37.0032 227.445 36.7009 227.977 36.2737" stroke="#2E2E2E" stroke-width="0.5" stroke-miterlimit="10" stroke-linecap="round" stroke-linejoin="round"/>
<path d="M207.93 37.5077L207.048 36.229L207.06 36.2475C206.454 35.5102 205.74 34.8732 204.921 34.4537C204.102 34.0403 203.186 33.8614 202.272 33.9246C201.355 33.994 200.455 34.2578 199.635 34.6866C198.777 35.0984 198.17 35.7971 197.324 36.3478C197.255 36.3925 197.162 36.374 197.118 36.3046C197.088 36.2598 197.09 36.1997 197.11 36.1565C197.537 35.2187 198.407 34.5817 199.269 34.0372C200.155 33.4943 201.187 33.1966 202.226 33.1411C203.272 33.0655 204.347 33.3231 205.251 33.8475C206.169 34.3581 206.876 35.1401 207.447 35.9637L207.456 35.9776L207.46 35.9822L208.177 37.3611C208.214 37.4321 208.186 37.52 208.115 37.5555C208.05 37.5879 207.97 37.5663 207.93 37.5077Z" fill="#2E2E2E"/>
<path d="M204.609 35.4979C204.537 34.5 203.67 33.7503 202.673 33.8213C201.676 33.8938 200.926 34.7606 200.997 35.757C201.069 36.755 201.936 37.5046 202.933 37.4336C203.931 37.3627 204.68 36.4958 204.609 35.4979Z" fill="#2E2E2E"/>
<path d="M199.147 37.1513C198.481 37.0033 197.85 36.701 197.318 36.2737" stroke="#2E2E2E" stroke-width="0.5" stroke-miterlimit="10" stroke-linecap="round" stroke-linejoin="round"/>
<path d="M209.51 45.4248C210.262 44.4562 211.444 43.8624 212.641 43.8516C213.836 43.8408 215.024 44.4146 215.786 45.3724" stroke="#2E2E2E" stroke-width="0.5" stroke-miterlimit="10" stroke-linecap="round" stroke-linejoin="round"/>
<path d="M212.838 52.2824C213.645 52.2778 214.452 52.2269 215.252 52.1282C215.497 52.0989 217.894 51.7688 217.877 51.6191C217.877 51.6191 216.643 50.6706 216.215 50.3066L216.023 50.1369C215.564 49.7266 215.09 49.3009 214.492 49.0865C213.907 48.886 213.127 48.9739 212.675 49.4876C212.237 48.9631 211.459 48.8536 210.865 49.0387C210.265 49.2362 209.78 49.648 209.309 50.0459L209.116 50.2079C208.677 50.5595 207.417 51.4773 207.417 51.4773C207.398 51.6732 209.483 52.0341 209.721 52.068C210.6 52.1945 211.487 52.2654 212.374 52.2793C212.53 52.2839 212.684 52.284 212.838 52.2824Z" fill="#2E2E2E"/>
<path d="M209.753 53.8479C211.57 54.9261 213.961 54.96 215.807 53.9343L209.753 53.8479Z" fill="#F5F5FF"/>
<path d="M209.753 53.8479C211.57 54.9261 213.961 54.96 215.807 53.9343" stroke="#2E2E2E" stroke-width="0.5" stroke-miterlimit="10" stroke-linecap="round" stroke-linejoin="round"/>
<path d="M157.551 171.549C163.928 173.76 170.997 169.572 173.258 162.245L192.331 100.447C195.071 91.5722 190.652 82.3933 182.714 80.4699C175.155 78.6391 167.338 84.1285 165.254 92.7321L150.023 155.624C148.34 162.571 151.612 169.49 157.551 171.549Z" fill="#32A095"/>
<path d="M267.556 171.549C261.18 173.76 254.111 169.572 251.85 162.245L232.777 100.447C230.037 91.5722 234.456 82.3933 242.394 80.4699C249.953 78.6391 257.77 84.1285 259.854 92.7321L275.085 155.624C276.768 162.571 273.495 169.49 267.556 171.549Z" fill="#32A095"/>
<path d="M212.181 235.823C240.385 235.823 257.831 205.251 243.669 180.861C243.259 180.154 242.842 179.451 242.418 178.752L237.228 170.178H212.813H211.55H187.135L181.945 178.752C181.521 179.451 181.103 180.154 180.692 180.861C166.528 205.251 183.976 235.823 212.181 235.823Z" fill="#2E2E2E"/>
<path d="M182.927 186.957C188.275 186.801 193.366 183.208 195.305 178.223" stroke="#F4F4F4" stroke-width="0.5" stroke-miterlimit="10"/>
<path d="M239.318 186.956C233.97 186.801 228.879 183.208 226.94 178.223" stroke="#F4F4F4" stroke-width="0.5" stroke-miterlimit="10"/>
<path d="M251.574 99.9938L248.856 112.995C249.947 115.427 250.568 118.128 250.568 120.963C250.568 126.65 248.119 131.766 244.227 135.323L236.98 170.116H187.322L180.208 134.886C176.6 131.346 174.336 126.414 174.336 120.963C174.336 118.279 174.89 115.713 175.88 113.38L173.162 99.9938C170.796 89.928 174.17 80.2988 184.502 80.2988H241.658C251.976 80.2988 253.938 89.928 251.574 99.9938Z" fill="#32A095"/>
<path d="M223.9 79.9949H201.393" stroke="#2E2E2E" stroke-width="0.5" stroke-miterlimit="10" stroke-linecap="round" stroke-linejoin="round"/>
<path d="M201.41 78.9229L187.496 79.9949L187.57 80.5594C189.245 93.1547 200.117 102.651 212.859 102.651C225.593 102.651 236.458 93.1547 238.132 80.5594L238.206 79.9949L223.51 78.7856" fill="#F5F5FF"/>
<path d="M201.41 78.9229L187.496 79.9949L187.57 80.5594C189.245 93.1547 200.117 102.651 212.859 102.651C225.593 102.651 236.458 93.1547 238.132 80.5594L238.206 79.9949L223.51 78.7856" stroke="#2E2E2E" stroke-width="0.5" stroke-miterlimit="10" stroke-linecap="round" stroke-linejoin="round"/>
<path d="M251.574 99.9938L248.856 112.995C249.947 115.427 250.568 118.128 250.568 120.963C250.568 126.65 248.119 131.766 244.227 135.323" stroke="#2E2E2E" stroke-width="0.5" stroke-miterlimit="10" stroke-linecap="round" stroke-linejoin="round"/>
<path d="M180.208 134.888C176.6 131.348 174.336 126.415 174.336 120.964C174.336 118.28 174.89 115.714 175.88 113.382L173.162 99.9951" stroke="#2E2E2E" stroke-width="0.5" stroke-miterlimit="10" stroke-linecap="round" stroke-linejoin="round"/>
<path d="M204.16 110.149L199.661 110.234L199.419 97.3378C199.396 96.0961 200.384 95.0689 201.626 95.0458C202.868 95.0226 203.895 96.0098 203.918 97.253L204.16 110.149Z" fill="#F5F5FF" stroke="#2E2E2E" stroke-width="0.5" stroke-miterlimit="10" stroke-linecap="round" stroke-linejoin="round"/>
<path d="M153.379 168.722C157.698 173.041 164.673 173.041 168.973 168.722L200.63 137.083L190.692 127.47L153.379 153.128C149.079 157.447 149.079 164.422 153.379 168.722Z" fill="#32A095"/>
<path d="M214.157 94.2699C213.646 94.1249 213.128 94.1943 212.688 94.4134L214.144 89.2755C214.453 88.1851 213.82 87.0514 212.73 86.7429C212.462 86.6673 212.19 86.6488 211.928 86.6797L212.056 86.2262C212.364 85.1357 211.732 84.0021 210.641 83.6936C209.551 83.3851 208.417 84.0175 208.109 85.108L207.54 87.1177C207.314 86.9404 207.052 86.8046 206.756 86.7321C205.655 86.4653 204.546 87.1424 204.279 88.2437L200.082 105.567L199.889 105.627L198.39 122.178L190.692 127.472L200.63 137.084L203.864 133.85C205.201 133.416 206.375 132.801 207.333 131.988C208.905 130.669 209.917 128.88 210.134 126.91L212.06 109.091C212.096 109.008 212.135 108.927 212.161 108.838L215.571 96.801C215.879 95.7121 215.247 94.5784 214.157 94.2699Z" fill="#F5F5FF" stroke="#2E2E2E" stroke-width="0.5" stroke-miterlimit="10" stroke-linecap="round" stroke-linejoin="round"/>
<path d="M211.917 86.6766C212.201 85.2823 211.662 83.982 210.641 83.692C209.551 83.3835 208.323 84.3475 207.899 85.8452L203.213 102.385" stroke="#2E2E2E" stroke-width="0.5" stroke-miterlimit="10" stroke-linecap="round" stroke-linejoin="round"/>
<path d="M212.689 94.4118L213.966 89.9064C214.373 88.4674 213.821 87.0499 212.73 86.7414C211.64 86.4329 210.426 87.3491 210.019 88.7882L206.397 102.331" stroke="#2E2E2E" stroke-width="0.5" stroke-miterlimit="10" stroke-linecap="round" stroke-linejoin="round"/>
<path d="M209.015 105.041L211.623 95.6843C211.931 94.5938 213.067 93.9614 214.155 94.2699C215.246 94.5784 215.878 95.712 215.57 96.8025L211.572 110.936" stroke="#2E2E2E" stroke-width="0.5" stroke-miterlimit="10" stroke-linecap="round" stroke-linejoin="round"/>
<path d="M198.085 122.397C199.971 121.853 202.167 122.666 203.244 124.307" stroke="#2E2E2E" stroke-width="0.5" stroke-miterlimit="10" stroke-linecap="round" stroke-linejoin="round"/>
<path d="M190.908 127.311L162.085 147.076" stroke="#2E2E2E" stroke-width="0.5" stroke-miterlimit="10" stroke-linecap="round" stroke-linejoin="round"/>
<path d="M200.63 137.245L169.18 168.69" stroke="#2E2E2E" stroke-width="0.5" stroke-miterlimit="10" stroke-linecap="round" stroke-linejoin="round"/>
<path d="M221.148 110.149L225.648 110.234L225.89 97.3378C225.913 96.0961 224.924 95.0689 223.683 95.0458C222.441 95.0226 221.414 96.0098 221.391 97.253L221.148 110.149Z" fill="#F5F5FF" stroke="#2E2E2E" stroke-width="0.5" stroke-miterlimit="10" stroke-linecap="round" stroke-linejoin="round"/>
<path d="M271.931 168.722C267.612 173.041 260.637 173.041 256.337 168.722L224.68 137.083L234.618 127.47L271.931 153.128C276.231 157.447 276.231 164.422 271.931 168.722Z" fill="#32A095"/>
<path d="M211.154 94.2699C211.664 94.1249 212.182 94.1943 212.622 94.4134L211.166 89.2755C210.857 88.1851 211.49 87.0514 212.58 86.7429C212.849 86.6673 213.12 86.6488 213.382 86.6797L213.254 86.2262C212.946 85.1357 213.578 84.0021 214.669 83.6936C215.759 83.3851 216.893 84.0175 217.201 85.108L217.771 87.1177C217.996 86.9404 218.256 86.8046 218.554 86.7321C219.655 86.4653 220.764 87.1424 221.031 88.2437L225.228 105.567L225.422 105.627L226.922 122.178L234.62 127.472L224.682 137.084L221.448 133.85C220.11 133.416 218.935 132.801 217.979 131.988C216.407 130.669 215.395 128.88 215.178 126.91L213.251 109.091C213.216 109.008 213.177 108.927 213.151 108.838L209.741 96.801C209.429 95.7121 210.063 94.5784 211.154 94.2699Z" fill="#F5F5FF" stroke="#2E2E2E" stroke-width="0.5" stroke-miterlimit="10" stroke-linecap="round" stroke-linejoin="round"/>
<path d="M213.393 86.6766C213.11 85.2823 213.648 83.982 214.669 83.692C215.76 83.3835 216.987 84.3475 217.411 85.8452L222.097 102.385" stroke="#2E2E2E" stroke-width="0.5" stroke-miterlimit="10" stroke-linecap="round" stroke-linejoin="round"/>
<path d="M212.622 94.4118L211.345 89.9064C210.938 88.4674 211.49 87.0499 212.581 86.7414C213.671 86.4329 214.885 87.3491 215.292 88.7882L218.914 102.331" stroke="#2E2E2E" stroke-width="0.5" stroke-miterlimit="10" stroke-linecap="round" stroke-linejoin="round"/>
<path d="M216.295 105.041L213.686 95.6843C213.378 94.5938 212.243 93.9614 211.154 94.2699C210.063 94.5784 209.431 95.712 209.739 96.8025L213.737 110.936" stroke="#2E2E2E" stroke-width="0.5" stroke-miterlimit="10" stroke-linecap="round" stroke-linejoin="round"/>
<path d="M227.226 122.397C225.339 121.853 223.143 122.666 222.066 124.307" stroke="#2E2E2E" stroke-width="0.5" stroke-miterlimit="10" stroke-linecap="round" stroke-linejoin="round"/>
<path d="M234.402 127.311L263.225 147.076" stroke="#2E2E2E" stroke-width="0.5" stroke-miterlimit="10" stroke-linecap="round" stroke-linejoin="round"/>
<path d="M224.68 137.245L256.13 168.69" stroke="#2E2E2E" stroke-width="0.5" stroke-miterlimit="10" stroke-linecap="round" stroke-linejoin="round"/>
<path d="M297.532 224.85L229.427 253.043C214.163 259.36 196.748 251.38 191.567 235.694C186.065 219.036 196.82 201.42 214.151 198.702L284.003 187.745C294.503 184.7 305.48 190.745 308.525 201.242C311.282 210.754 306.586 220.84 297.532 224.85Z" fill="#2E2E2E"/>
<path d="M181.746 195.909C179.602 189.526 176.998 184.561 175.666 184.253L175.397 184.256C174.183 184.678 175.058 190.533 177.336 197.383C179.555 204.048 182.321 209.161 183.594 209.018C183.631 209.025 183.649 209.028 183.689 209.018C184.898 208.613 184.028 202.738 181.746 195.909Z" fill="#A6A6A6"/>
<path d="M139.536 211.738C138.895 211.745 138.255 211.721 137.613 211.669C134.536 211.419 132.096 208.964 131.849 205.891C131.849 205.891 131.894 201.184 131.855 196.826C131.826 193.504 131.753 190.387 131.559 189.733L131.514 184.779C131.504 183.642 132.077 182.602 133.049 182.012C134.107 181.361 135.463 181.378 136.502 182.069L138.892 183.665L140.241 184.57C143.261 186.583 146.611 188.084 150.147 188.985L156.924 190.717C161.689 189.057 166.873 188.602 172.114 191.266L218.212 186.977L221.775 205.671L169.894 205.378C166.046 206.81 161.986 207.562 157.907 207.599C156.74 207.609 155.59 207.562 154.422 207.455L147.336 210.228C145.942 210.765 144.503 211.172 143.048 211.418C141.881 211.617 140.716 211.729 139.536 211.738Z" fill="#F5F5FF" stroke="#2E2E2E" stroke-width="0.5" stroke-miterlimit="10" stroke-linecap="round" stroke-linejoin="round"/>
<path d="M309.095 210.023C309.494 208.058 309.612 205.979 309.431 203.858C308.587 194.28 301.523 186.611 292.38 184.752C291.204 184.513 289.989 184.381 288.755 184.341L175.666 184.253C176.998 184.563 179.602 189.528 181.746 195.909C184.027 202.738 184.898 208.613 183.688 209.018C183.648 209.028 183.629 209.025 183.592 209.018L183.607 209.039C183.607 209.039 245.029 232.023 285.815 227.008C297.115 228.234 306.965 220.505 309.095 210.023Z" fill="#2E2E2E"/>
<path d="M249.715 184.31L175.666 184.253" stroke="#F4F4F4" stroke-width="0.5" stroke-miterlimit="10"/>
<path d="M183.603 209.047L230.268 222.56C251.02 228.569 273.184 227.486 293.251 219.483" stroke="#F4F4F4" stroke-width="0.5" stroke-miterlimit="10"/>
<path d="M189.592 251.881L161.972 241.985C150.959 238.04 145.231 225.913 149.176 214.899C153.122 203.886 165.248 198.157 176.263 202.103L203.883 211.999C214.895 215.945 220.625 228.071 216.678 239.085C212.733 250.098 200.607 255.827 189.592 251.881Z" fill="#2E2E2E"/>
<path d="M211.646 257.124C215.748 251.533 218.398 246.315 217.883 244.903L217.726 244.657C216.668 243.768 212.269 247.885 207.851 253.865C203.556 259.686 200.876 265.138 201.734 266.236C201.749 266.275 201.757 266.293 201.79 266.326C202.831 267.219 207.247 263.096 211.646 257.124Z" fill="#A6A6A6"/>
<path d="M200.647 300.284C200.648 300.925 200.677 301.565 200.736 302.207C201.017 305.281 203.497 307.696 206.571 307.912C206.571 307.912 211.277 307.82 215.634 307.815C218.957 307.811 222.075 307.851 222.731 308.04L227.685 308.034C228.822 308.033 229.855 307.448 230.438 306.472C231.078 305.407 231.047 304.052 230.347 303.018L228.726 300.645L227.807 299.306C225.763 296.306 224.23 292.971 223.292 289.445L221.492 282.686C223.104 277.905 223.507 272.716 220.79 267.503L213.987 248.583C216.254 235.582 186.882 231.531 186.882 231.531L206.702 269.866C205.308 273.729 204.598 277.795 204.603 281.875C204.604 283.041 204.665 284.192 204.782 285.358L202.079 292.471C201.557 293.87 201.165 295.314 200.933 296.771C200.745 297.936 200.645 299.102 200.647 300.284Z" fill="#F5F5FF" stroke="#2E2E2E" stroke-width="0.5" stroke-miterlimit="10" stroke-linecap="round" stroke-linejoin="round"/>
<path d="M217.473 244.547C216.1 244.313 211.98 248.269 207.86 253.871C203.649 259.562 200.993 264.893 201.698 266.139L157.682 240.68C147.853 235.006 145.178 222.032 151.954 212.907C155.694 207.867 161.423 205.246 167.204 205.246C171.775 205.246 176.364 206.872 180.034 210.233L217.473 244.547Z" fill="#2E2E2E"/>
<path d="M167.204 205.246C171.776 205.246 176.364 206.872 180.034 210.233L217.473 244.545" stroke="#F4F4F4" stroke-width="0.5" stroke-miterlimit="10"/>
<path d="M80.6484 348.982C78.3256 348.774 76.6104 346.721 76.8186 344.398L85.1091 251.972L93.523 252.726L85.2325 345.152C85.0243 347.477 82.9713 349.19 80.6484 348.982Z" fill="#2E2E2E"/>
<path d="M49.5379 355.77C47.3307 355.013 46.1554 352.611 46.9127 350.404L80.471 252.526L88.4622 255.265L54.904 353.144C54.1466 355.351 51.7451 356.528 49.5379 355.77Z" fill="#2E2E2E"/>
<path d="M134.01 353.574C131.835 354.418 129.387 353.338 128.545 351.163L91.8374 256.508L99.713 253.454L136.421 348.108C137.264 350.284 136.185 352.73 134.01 353.574Z" fill="#2E2E2E"/>
<path d="M91.8277 199.677H86.4524V257.275H91.8277V199.677Z" fill="#F5F5FF" stroke="#2E2E2E" stroke-width="0.3924" stroke-miterlimit="10"/>
<path d="M122.108 210.486H56.1734C54.2501 210.486 52.6907 208.927 52.6907 207.003V177.215C52.6907 175.291 54.2501 173.732 56.1734 173.732H122.108C124.032 173.732 125.591 175.291 125.591 177.215V207.003C125.593 208.927 124.032 210.486 122.108 210.486Z" fill="#F5F5FF" stroke="#2E2E2E" stroke-width="0.3924" stroke-miterlimit="10"/>
<path d="M117.253 176.352H60.5339V208.618H117.253V176.352Z" fill="#2E2E2E"/>
<path d="M54.3611 192.776C54.3611 191.459 55.4284 190.391 56.7456 190.391C58.0629 190.391 59.1302 191.459 59.1302 192.776C59.1302 194.093 58.0629 195.161 56.7456 195.161C55.4284 195.161 54.3611 194.093 54.3611 192.776Z" fill="#F5F5FF" stroke="#2E2E2E" stroke-width="0.3924" stroke-miterlimit="10"/>
<path d="M120.955 188.901H120.41V195.171H120.955V188.901Z" fill="#0D1C00"/>
<path d="M120.205 197.42C120.205 197.156 120.418 196.944 120.682 196.944C120.945 196.944 121.158 197.156 121.158 197.42C121.158 197.684 120.945 197.897 120.682 197.897C120.419 197.898 120.205 197.684 120.205 197.42Z" fill="#0D1C00"/>
<path d="M93.8145 257.531H84.5986C80.7811 257.531 77.687 254.437 77.687 250.619H100.726C100.726 254.437 97.6319 257.531 93.8145 257.531Z" fill="#F5F5FF" stroke="#2E2E2E" stroke-width="0.3924" stroke-miterlimit="10"/>
<path d="M97.2046 171.903H81.0771V175.998H97.2046V171.903Z" fill="#0D1C00"/>
<path d="M92.7888 173.309H85.4932V168.434C85.4932 167.38 86.3477 166.526 87.4011 166.526H90.8808C91.9343 166.526 92.7888 167.38 92.7888 168.434V173.309Z" fill="#0D1C00"/>
<path d="M97.973 210.557H80.3093V214.782H97.973V210.557Z" fill="#0D1C00"/>
<path d="M95.3475 212.86H82.9326V227.579H95.3475V212.86Z" fill="#0D1C00"/>
<path d="M95.9895 230.907H82.2944C81.1284 230.907 80.1829 229.962 80.1829 228.796C80.1829 227.63 81.1284 226.684 82.2944 226.684H95.9895C97.1555 226.684 98.1011 227.63 98.1011 228.796C98.1011 229.962 97.1555 230.907 95.9895 230.907Z" fill="#0D1C00"/>
<path d="M95.9895 235.132H82.2944C81.1284 235.132 80.1829 234.187 80.1829 233.021C80.1829 231.855 81.1284 230.909 82.2944 230.909H95.9895C97.1555 230.909 98.1011 231.855 98.1011 233.021C98.1011 234.187 97.1555 235.132 95.9895 235.132Z" fill="#0D1C00"/>
<path d="M96.6294 240.379H82.2942V244.22H96.6294V240.379Z" fill="#2E2E2E"/>
</svg>
