<svg width="500" height="500" viewBox="0 0 500 500" fill="none" xmlns="http://www.w3.org/2000/svg">
<g clip-path="url(#clip0_28_5632)">

<path d="M138.34 360.1C108.722 336.114 86.5577 302.985 76.8562 265.707C73.1197 251.35 71.5783 236.025 77.9918 222.208C83.8769 209.529 95.2585 200.54 101.795 188.222C109.895 172.954 105.055 154.451 104.562 137.175C103.879 113.23 112.664 88.7424 129.96 72.1703C147.256 55.5982 173.189 47.8552 196.283 54.2165C219.378 60.5767 238.191 81.7178 239.912 105.61C240.724 116.884 237.998 128.257 239.436 139.469C240.876 150.68 248.648 162.586 259.948 162.831C266.198 162.967 271.896 159.529 277.191 156.209C290.173 148.07 303.155 139.93 316.138 131.79C332.879 121.293 350.551 110.486 370.274 109.298C391.987 107.99 413.984 119.728 424.986 138.492C435.989 157.256 435.491 182.183 423.747 200.494C415.482 213.379 401.866 223.984 400.138 239.193C398.301 255.37 410.632 269.172 418.317 283.525C449.147 341.105 401.929 399.02 343.791 406.699C319.701 409.88 295.562 406.668 271.724 403.058C249.332 399.667 225.854 400.28 204.011 393.875C180.003 386.837 157.841 375.893 138.34 360.1Z" fill="#E3E2E3"/>
<path d="M105.016 203.837C105.659 215.489 101.095 225.217 94.8205 225.564C88.5457 225.911 82.9371 216.745 82.2928 205.093C81.6485 193.44 86.2127 183.712 92.4875 183.366C98.7632 183.019 104.372 192.183 105.016 203.837Z" stroke="#2E2E2E" stroke-width="0.5697" stroke-miterlimit="10" stroke-linecap="round" stroke-linejoin="round"/>
<path d="M128.165 222.077C122.394 230.524 114.029 234.853 109.48 231.746C104.932 228.638 105.923 219.271 111.693 210.824C117.464 202.377 125.829 198.048 130.378 201.155C134.927 204.262 133.936 213.629 128.165 222.077Z" stroke="#2E2E2E" stroke-width="0.5697" stroke-miterlimit="10" stroke-linecap="round" stroke-linejoin="round"/>
<path d="M69.9201 232.302C61.5185 229.288 56.023 223.179 57.6452 218.655C59.2673 214.13 67.3932 212.906 75.7947 215.919C84.1963 218.931 89.6918 225.041 88.0696 229.565C86.4475 234.09 78.3216 235.315 69.9201 232.302Z" stroke="#2E2E2E" stroke-width="0.5697" stroke-miterlimit="10" stroke-linecap="round" stroke-linejoin="round"/>
<path d="M83.1388 266.63C75.8605 267.453 69.6009 264.943 69.1581 261.023C68.7153 257.103 74.2555 253.259 81.5347 252.436C88.8139 251.613 95.0725 254.123 95.5163 258.043C95.9591 261.963 90.418 265.808 83.1388 266.63Z" stroke="#2E2E2E" stroke-width="0.5697" stroke-miterlimit="10" stroke-linecap="round" stroke-linejoin="round"/>
<path d="M127.863 251.533C122.352 256.358 115.779 257.864 113.18 254.898C110.582 251.931 112.943 245.613 118.453 240.787C123.964 235.961 130.537 234.455 133.136 237.422C135.735 240.39 133.374 246.707 127.863 251.533Z" stroke="#2E2E2E" stroke-width="0.5697" stroke-miterlimit="10" stroke-linecap="round" stroke-linejoin="round"/>
<path d="M125.728 298.519C105.664 266.042 93.7564 228.57 91.3911 190.469" stroke="#2E2E2E" stroke-width="0.5697" stroke-miterlimit="10" stroke-linecap="round" stroke-linejoin="round"/>
<path d="M106.521 259.792C102.692 240.308 110.453 218.885 125.75 206.226" stroke="#2E2E2E" stroke-width="0.5697" stroke-miterlimit="10" stroke-linecap="round" stroke-linejoin="round"/>
<path d="M101.243 244.626C90.8843 232.783 77.6696 223.984 62.7861 218.879" stroke="#2E2E2E" stroke-width="0.5697" stroke-miterlimit="10" stroke-linecap="round" stroke-linejoin="round"/>
<path d="M109.311 266.691C112.549 256.911 118.887 248.185 127.185 242.079" stroke="#2E2E2E" stroke-width="0.5697" stroke-miterlimit="10" stroke-linecap="round" stroke-linejoin="round"/>
<path d="M106.704 259.495C96.7849 256.716 86.0057 257.094 76.3052 260.562" stroke="#2E2E2E" stroke-width="0.5697" stroke-miterlimit="10" stroke-linecap="round" stroke-linejoin="round"/>
<path d="M242.09 334.901C249.185 341.563 252.031 350.062 248.443 353.883C244.856 357.704 236.195 355.4 229.098 348.738C222.001 342.075 219.157 333.577 222.745 329.756C226.333 325.935 234.993 328.238 242.09 334.901Z" stroke="#2E2E2E" stroke-width="0.5697" stroke-miterlimit="10" stroke-linecap="round" stroke-linejoin="round"/>
<path d="M266.562 332.584C267.941 341.004 265.384 348.432 260.849 349.175C256.316 349.917 251.521 343.694 250.143 335.273C248.763 326.853 251.32 319.425 255.854 318.682C260.389 317.94 265.182 324.163 266.562 332.584Z" stroke="#2E2E2E" stroke-width="0.5697" stroke-miterlimit="10" stroke-linecap="round" stroke-linejoin="round"/>
<path d="M237.294 372.282C230.489 375.299 223.655 374.776 222.03 371.111C220.405 367.447 224.604 362.03 231.409 359.012C238.214 355.994 245.048 356.519 246.673 360.183C248.297 363.848 244.099 369.265 237.294 372.282Z" stroke="#2E2E2E" stroke-width="0.5697" stroke-miterlimit="10" stroke-linecap="round" stroke-linejoin="round"/>
<path d="M265.032 385.391C261.113 390.078 255.89 392.166 253.366 390.055C250.842 387.945 251.974 382.435 255.893 377.749C259.813 373.062 265.034 370.975 267.558 373.085C270.082 375.196 268.951 380.706 265.032 385.391Z" stroke="#2E2E2E" stroke-width="0.5697" stroke-miterlimit="10" stroke-linecap="round" stroke-linejoin="round"/>
<path d="M283.334 350.536C282.786 356.62 279.686 361.313 276.41 361.018C273.133 360.724 270.922 355.551 271.47 349.467C272.018 343.382 275.119 338.689 278.395 338.984C281.671 339.28 283.883 344.451 283.334 350.536Z" stroke="#2E2E2E" stroke-width="0.5697" stroke-miterlimit="10" stroke-linecap="round" stroke-linejoin="round"/>
<path d="M309.092 380.123C278.288 372.071 249.531 356.31 226.172 334.675" stroke="#2E2E2E" stroke-width="0.5697" stroke-miterlimit="10" stroke-linecap="round" stroke-linejoin="round"/>
<path d="M275.207 367.805C261.681 358.25 254.034 340.853 255.98 324.408" stroke="#2E2E2E" stroke-width="0.5697" stroke-miterlimit="10" stroke-linecap="round" stroke-linejoin="round"/>
<path d="M263.292 361.69C250.222 360.505 237.181 362.801 225.261 368.287" stroke="#2E2E2E" stroke-width="0.5697" stroke-miterlimit="10" stroke-linecap="round" stroke-linejoin="round"/>
<path d="M280.862 370.364C277.187 362.598 275.988 353.682 277.482 345.221" stroke="#2E2E2E" stroke-width="0.5697" stroke-miterlimit="10" stroke-linecap="round" stroke-linejoin="round"/>
<path d="M275.146 367.521C267.559 371.553 261.272 377.986 257.414 385.663" stroke="#2E2E2E" stroke-width="0.5697" stroke-miterlimit="10" stroke-linecap="round" stroke-linejoin="round"/>
<path d="M443.737 249.644C438.623 254.302 432.444 255.845 429.936 253.092C427.428 250.338 429.541 244.329 434.654 239.672C439.768 235.014 445.948 233.47 448.455 236.224C450.963 238.977 448.851 244.985 443.737 249.644Z" stroke="#2E2E2E" stroke-width="0.5697" stroke-miterlimit="10" stroke-linecap="round" stroke-linejoin="round"/>
<path d="M444.02 267.11C437.979 267.62 432.857 265.396 432.583 262.143C432.308 258.889 436.984 255.838 443.026 255.328C449.067 254.818 454.189 257.041 454.463 260.295C454.738 263.549 450.062 266.6 444.02 267.11Z" stroke="#2E2E2E" stroke-width="0.5697" stroke-miterlimit="10" stroke-linecap="round" stroke-linejoin="round"/>
<path d="M417.518 244.171C415.758 239.182 416.508 234.369 419.194 233.421C421.881 232.474 425.485 235.749 427.246 240.737C429.007 245.725 428.256 250.539 425.57 251.486C422.883 252.435 419.279 249.16 417.518 244.171Z" stroke="#2E2E2E" stroke-width="0.5697" stroke-miterlimit="10" stroke-linecap="round" stroke-linejoin="round"/>
<path d="M406.691 263.096C403.588 260.059 402.399 256.243 404.034 254.572C405.67 252.901 409.511 254.008 412.613 257.045C415.716 260.082 416.906 263.899 415.27 265.569C413.635 267.24 409.794 266.133 406.691 263.096Z" stroke="#2E2E2E" stroke-width="0.5697" stroke-miterlimit="10" stroke-linecap="round" stroke-linejoin="round"/>
<path d="M430.371 277.997C426.091 277.271 422.938 274.815 423.329 272.509C423.719 270.205 427.506 268.925 431.787 269.651C436.067 270.377 439.221 272.834 438.83 275.139C438.438 277.443 434.652 278.723 430.371 277.997Z" stroke="#2E2E2E" stroke-width="0.5697" stroke-miterlimit="10" stroke-linecap="round" stroke-linejoin="round"/>
<path d="M407.98 294.605C415.394 273.227 428.157 253.728 444.78 238.378" stroke="#2E2E2E" stroke-width="0.5697" stroke-miterlimit="10" stroke-linecap="round" stroke-linejoin="round"/>
<path d="M418.587 271.282C426.108 262.228 438.858 257.775 450.401 260.066" stroke="#2E2E2E" stroke-width="0.5697" stroke-miterlimit="10" stroke-linecap="round" stroke-linejoin="round"/>
<path d="M423.581 263.178C425.146 253.984 424.242 244.618 421.017 235.868" stroke="#2E2E2E" stroke-width="0.5697" stroke-miterlimit="10" stroke-linecap="round" stroke-linejoin="round"/>
<path d="M416.46 275.145C422.167 272.973 428.55 272.619 434.462 274.146" stroke="#2E2E2E" stroke-width="0.5697" stroke-miterlimit="10" stroke-linecap="round" stroke-linejoin="round"/>
<path d="M418.791 271.254C416.356 265.655 412.147 260.844 406.921 257.684" stroke="#2E2E2E" stroke-width="0.5697" stroke-miterlimit="10" stroke-linecap="round" stroke-linejoin="round"/>
<path d="M66.0372 371.686C63.2215 369.931 60.3897 367.924 58.8245 364.998C57.2594 362.073 57.3734 357.996 59.9221 355.873C63.0647 353.256 67.7268 354.76 71.6915 355.762C75.657 356.765 81.1544 356.229 82.0895 352.247C82.9856 348.428 78.7996 345.567 75.3843 343.637C63.843 337.116 54.151 327.361 47.7052 315.777C45.1708 311.223 44.0333 303.957 48.9159 302.136C51.9197 301.015 55.1079 303.018 57.688 304.922C67.3857 312.077 77.0824 319.231 86.7792 326.387C77.7942 303.4 52.2761 289.636 44.6177 266.175C42.9861 261.177 42.2667 255.659 44.0067 250.698C45.7457 245.738 50.4202 241.567 55.6762 241.665C62.5145 241.793 67.2051 248.359 70.7345 254.217C80.4959 270.415 90.2573 286.613 100.019 302.81C102.242 306.501 106.255 310.755 110.055 308.722C113.324 306.974 112.948 302.308 112.84 298.601C112.731 294.896 115.065 289.986 118.603 291.094C125.318 298.047 127.581 308.961 124.184 318.011C122.795 321.709 120.529 325.203 120.342 329.149C120.154 333.093 123.413 337.588 127.251 336.658C132.86 335.298 131.292 326.108 135.638 322.312C139.119 319.273 145.038 321.423 147.366 325.414C149.694 329.405 149.399 334.362 148.75 338.937C146.542 354.53 140.502 384.825 122.363 386.788C103.445 388.837 81.8662 381.554 66.0372 371.686Z" fill="#32A095"/>
<path d="M285.016 336.853C285.178 334.091 285.517 331.216 287.035 328.902C288.552 326.588 291.584 325.044 294.156 326.064C297.327 327.32 298.086 331.335 298.935 334.638C299.784 337.943 302.371 341.754 305.66 340.849C308.815 339.982 309.238 335.774 309.289 332.502C309.457 321.447 312.733 310.456 318.642 301.112C320.966 297.439 325.832 293.706 329.116 296.554C331.136 298.306 330.941 301.441 330.576 304.089C329.207 314.047 327.838 324.004 326.469 333.961C339.716 318.206 339.61 294.025 353.735 279.052C356.743 275.863 360.497 273.134 364.825 272.427C369.152 271.721 374.072 273.479 376.097 277.366C378.732 282.426 375.797 288.481 372.915 293.404C364.95 307.018 356.984 320.631 349.018 334.245C347.203 337.347 345.69 341.983 348.694 343.954C351.28 345.65 354.547 343.513 357.218 341.954C359.888 340.394 364.415 340.143 365.016 343.177C362.604 350.87 355.516 356.883 347.532 358.008C344.27 358.467 340.806 358.203 337.843 359.64C334.879 361.077 332.888 365.258 335.102 367.697C338.336 371.262 344.441 366.445 348.956 368.113C352.571 369.449 353.359 374.642 351.366 377.939C349.372 381.237 345.624 383 342.015 384.351C329.714 388.957 305.118 396.626 296.44 384.128C287.388 371.094 284.109 352.384 285.016 336.853Z" fill="#32A095"/>
<path d="M390.325 350.058C389.636 347.776 389.058 345.352 389.599 343.031C390.139 340.711 392.132 338.563 394.513 338.625C397.45 338.7 399.253 341.721 400.919 344.139C402.585 346.559 405.807 348.873 408.198 347.166C410.491 345.529 409.586 342.001 408.656 339.342C405.513 330.355 404.902 320.499 406.908 311.192C407.697 307.533 410.524 303.072 414.023 304.401C416.175 305.218 416.948 307.811 417.439 310.06C419.286 318.516 421.132 326.971 422.978 335.427C429.015 318.762 421.758 299.245 428.736 282.951C430.222 279.481 432.448 276.161 435.737 274.306C439.026 272.452 443.525 272.414 446.316 274.956C449.947 278.264 449.369 284.031 448.5 288.866C446.098 302.233 443.696 315.601 441.293 328.97C440.746 332.016 440.897 336.213 443.911 336.915C446.505 337.52 448.512 334.823 450.208 332.771C451.904 330.719 455.49 329.173 456.875 331.447C457.207 338.382 453.26 345.345 447.14 348.623C444.638 349.962 441.76 350.774 439.791 352.815C437.821 354.857 437.451 358.827 439.965 360.142C443.637 362.065 447.143 356.36 451.288 356.371C454.606 356.378 456.783 360.342 456.15 363.599C455.516 366.857 453.009 369.392 450.492 371.555C441.914 378.927 424.304 392.422 413.582 384.891C402.397 377.035 394.197 362.881 390.325 350.058Z" fill="#32A095"/>
<path d="M176.698 350.013L176.717 349.918L173.135 350.004L141.443 349.918L141.509 350.792L118.408 351.372L114.15 390.781H197.31L198.707 350.08L176.698 350.013Z" fill="#323DA0"/>
<path d="M125.333 376.38C131.488 376.01 137.033 370.919 137.929 364.818" stroke="#FBF9FF" stroke-width="0.721" stroke-miterlimit="10" stroke-linecap="round" stroke-linejoin="round"/>
<path d="M211.061 268.244C219.87 260.496 225.257 252.218 223.089 249.755C220.922 247.292 212.025 251.575 203.215 259.322C194.405 267.07 189.02 275.347 191.186 277.811C193.353 280.274 202.251 275.99 211.061 268.244Z" fill="#2E2E2E"/>
<path d="M250.338 309.303C255.916 304.497 255.768 295.48 250.009 289.267L201.433 236.863C194.456 229.337 183.296 228.416 177.143 234.86C171.284 240.996 172.267 251.446 179.34 258.2L231.05 307.577C236.761 313.029 245.143 313.78 250.338 309.303Z" fill="#FBF9FF" stroke="#2E2E2E" stroke-width="0.7214" stroke-miterlimit="10" stroke-linecap="round" stroke-linejoin="round"/>
<path d="M190.951 277.45C189.494 274.619 194.793 266.736 203.207 259.323C212.021 251.575 220.923 247.284 223.093 249.761C223.138 249.817 223.17 249.867 223.208 249.938L223.299 249.854L202.951 227.66C194.961 218.949 181.602 218.392 173.903 226.468C172.445 227.996 171.299 229.7 170.463 231.545C167.485 238.114 168.525 246.183 173.377 252.279L190.951 277.45Z" fill="#2E2E2E"/>
<path d="M233.011 283.539C240.9 261.522 255.748 221.262 256.628 218.753C258.039 214.73 259.887 210.878 261.423 206.904C262.246 204.776 264.069 203.191 266.293 202.672L266.976 202.513L277.752 199.311C279.248 198.867 280.82 199.719 281.265 201.215C281.708 202.711 280.857 204.282 279.361 204.727L272.523 206.759L273.253 207.236C274.131 207.03 275.043 206.909 275.988 206.909C276.979 206.909 277.935 207.041 278.852 207.267L284.362 204.113L292.462 196.402C293.438 195.473 294.916 195.41 295.966 196.179L296.661 195.296C297.597 194.107 299.32 193.901 300.509 194.837C300.994 195.219 301.305 195.732 301.453 196.285C301.875 196.363 302.288 196.529 302.65 196.814C303.84 197.75 304.045 199.473 303.109 200.662L301.047 203.283C301.233 203.358 301.414 203.45 301.586 203.571C302.829 204.435 303.134 206.144 302.268 207.386C300.583 209.805 298.86 212.202 297.23 214.657C295.819 216.783 293.76 218.463 291.864 220.145C289.805 221.971 287.644 223.697 285.278 225.111C282.686 226.659 279.89 227.81 277.135 229.023C275.823 229.601 274.531 230.215 273.226 230.807C272.689 231.051 268.993 232.305 268.916 232.765L254.596 302.226C252.883 309.306 245.755 313.656 238.676 311.943C237.191 311.583 235.826 310.986 234.612 310.201" fill="#FBF9FF"/>
<path d="M233.011 283.539C240.9 261.522 255.748 221.262 256.628 218.753C258.039 214.73 259.887 210.878 261.423 206.904C262.246 204.776 264.069 203.191 266.293 202.672L266.976 202.513L277.752 199.311C279.248 198.867 280.82 199.719 281.265 201.215C281.708 202.711 280.857 204.282 279.361 204.727L272.523 206.759L273.253 207.236C274.131 207.03 275.043 206.909 275.988 206.909C276.979 206.909 277.935 207.041 278.852 207.267L284.362 204.113L292.462 196.402C293.438 195.473 294.916 195.41 295.966 196.179L296.661 195.296C297.597 194.107 299.32 193.901 300.509 194.837C300.994 195.219 301.305 195.732 301.453 196.285C301.875 196.363 302.288 196.529 302.65 196.814C303.84 197.75 304.045 199.473 303.109 200.662L301.047 203.283C301.233 203.358 301.414 203.45 301.586 203.571C302.829 204.435 303.134 206.144 302.268 207.386C300.583 209.805 298.86 212.202 297.23 214.657C295.819 216.783 293.76 218.463 291.864 220.145C289.805 221.971 287.644 223.697 285.278 225.111C282.686 226.659 279.89 227.81 277.135 229.023C275.823 229.601 274.531 230.215 273.226 230.807C272.689 231.051 268.993 232.305 268.916 232.765L254.596 302.226C252.883 309.306 245.755 313.656 238.676 311.943C237.191 311.583 235.826 310.986 234.612 310.201" stroke="#2E2E2E" stroke-width="0.721" stroke-miterlimit="10" stroke-linecap="round" stroke-linejoin="round"/>
<path d="M268.832 232.456C267.057 231.426 265.593 229.869 264.676 228.035L268.832 232.456Z" fill="#FBF9FF"/>
<path d="M268.832 232.456C267.057 231.426 265.593 229.869 264.676 228.035" stroke="#2E2E2E" stroke-width="0.721" stroke-miterlimit="10" stroke-linecap="round" stroke-linejoin="round"/>
<path d="M272.949 209.157C271.495 212.902 268.137 215.849 264.236 216.805L272.949 209.157Z" fill="#FBF9FF"/>
<path d="M272.949 209.157C271.495 212.902 268.137 215.849 264.236 216.805" stroke="#2E2E2E" stroke-width="0.721" stroke-miterlimit="10" stroke-linecap="round" stroke-linejoin="round"/>
<path d="M296.122 196.03L288.932 203.995L280.865 210.211" fill="#FBF9FF"/>
<path d="M296.122 196.03L288.932 203.995L280.865 210.211" stroke="#2E2E2E" stroke-width="0.721" stroke-miterlimit="10" stroke-linecap="round" stroke-linejoin="round"/>
<path d="M301.246 196.378L291.117 206.827L283.05 213.042" fill="#FBF9FF"/>
<path d="M301.246 196.378L291.117 206.827L283.05 213.042" stroke="#2E2E2E" stroke-width="0.721" stroke-miterlimit="10" stroke-linecap="round" stroke-linejoin="round"/>
<path d="M301.121 203.143L293.534 211.034L286.174 216.344" fill="#FBF9FF"/>
<path d="M301.121 203.143L293.534 211.034L286.174 216.344" stroke="#2E2E2E" stroke-width="0.721" stroke-miterlimit="10" stroke-linecap="round" stroke-linejoin="round"/>
<path d="M173.931 230.983C172.7 241.657 163.059 249.226 152.669 247.681C142.496 246.167 135.554 236.502 137.095 226.141C137.126 225.938 137.158 225.72 137.203 225.519L143.422 197.772L144.221 194.197L148.09 176.959L177.637 181.354L176.267 199.632L175.97 203.622L173.931 230.983Z" fill="#FBF9FF" stroke="#2E2E2E" stroke-width="0.6898" stroke-miterlimit="10" stroke-linecap="round" stroke-linejoin="round"/>
<path d="M174.944 217.116C165.462 216.871 155.629 210.829 149.868 200.684C147.525 196.577 146.12 192.233 145.573 187.967L148.092 176.772L177.634 181.167L176.26 199.441L175.978 203.436L174.944 217.116Z" fill="#2E2E2E"/>
<path d="M155.429 128.399C169.69 126.93 182.704 135.212 187.841 147.851C188.929 150.484 189.658 153.329 189.985 156.303C190.926 160.51 191.369 164.828 191.223 169.136C191.169 170.718 191.36 172.311 191.914 173.793C195.29 182.812 188.25 195.054 183.86 202.417C182.529 204.648 180.83 206.705 178.654 208.126C176.223 209.714 173.153 209.99 170.431 208.979C161.775 205.764 154.331 200.647 146.62 195.567C143.232 193.336 141.573 189.61 140.577 185.556C140.347 185.394 140.103 185.252 139.877 185.085C133.016 179.992 128.242 172.146 127.299 162.988C125.517 145.669 138.112 130.183 155.429 128.399Z" fill="#FBF9FF" stroke="#2E2E2E" stroke-width="0.5815" stroke-miterlimit="10" stroke-linecap="round" stroke-linejoin="round"/>
<path d="M127.3 162.988C128.243 172.145 133.018 179.992 139.878 185.085C142.425 183.5 144.33 180.896 144.706 177.937C144.924 176.109 144.602 174.257 144.622 172.422C144.641 170.575 145.077 168.579 146.488 167.4C147.68 166.4 149.415 166.077 150.361 164.841C151.962 162.725 150.185 159.701 150.488 157.052C150.73 154.946 152.33 153.197 154.206 152.219C156.081 151.227 158.205 150.878 160.304 150.543C167.4 149.407 174.56 148.264 181.751 148.557C183.828 148.645 186.02 148.824 187.843 147.851C182.706 135.212 169.693 126.931 155.432 128.399C138.112 130.183 125.517 145.669 127.3 162.988Z" fill="#2E2E2E"/>
<path d="M164.111 195.13C164.312 193.442 165.045 192.026 166.142 190.852C167.243 189.689 168.791 188.815 170.496 188.49C172.204 188.152 173.952 188.394 175.389 188.99C176.84 189.608 178.028 190.488 179.06 191.758L178.86 191.798C179.259 190.639 179.964 189.677 181.005 188.929C182.035 188.192 183.506 187.788 184.904 187.992C186.23 188.171 187.492 188.759 188.416 189.771C189.331 190.763 189.805 192.12 189.523 193.381C189.49 193.523 189.35 193.613 189.207 193.58C189.176 193.574 189.147 193.561 189.122 193.545L189.116 193.541C188.081 192.87 187.29 192.486 186.547 192.227C185.818 191.981 185.087 191.794 184.366 191.662C183.708 191.549 183.056 191.518 182.197 191.63C181.337 191.721 180.346 191.991 179.138 192.139L178.938 192.18C177.373 192.695 175.959 192.804 174.738 192.982C173.512 193.139 172.505 193.28 171.562 193.535C170.616 193.771 169.668 194.062 168.518 194.393C167.371 194.743 166.117 195.179 164.431 195.43L164.422 195.431C164.274 195.453 164.136 195.352 164.113 195.203C164.109 195.179 164.108 195.153 164.111 195.13Z" fill="#2E2E2E"/>
<path d="M155.042 155.701C161.33 153.241 168.374 153.774 175.028 154.925C179.411 155.684 183.834 156.699 188.261 156.25C192.686 155.8 197.237 153.551 199.06 149.493C200.883 145.436 198.722 139.687 194.34 138.93C197.229 135.735 197.277 130.359 194.445 127.113C191.613 123.867 186.28 123.186 182.723 125.615C182.473 123.879 180.804 122.622 179.081 122.29C177.358 121.959 175.587 122.355 173.883 122.771C166.331 124.615 158.775 126.929 152.213 131.097C145.652 135.265 140.117 141.507 138.205 149.042C137.219 152.933 136.995 165.851 142.311 167.558C145 168.422 145.603 163.6 147.11 161.625C149.126 158.981 151.95 156.91 155.042 155.701Z" fill="#2E2E2E"/>
<path d="M141.303 186.58C138.6 187.399 135.006 185.044 132.764 180.757C130.217 175.889 130.378 170.373 133.126 168.437C135.873 166.501 140.165 168.878 142.712 173.747C143.755 175.74 144.343 177.84 144.487 179.759" fill="#FBF9FF"/>
<path d="M141.303 186.58C138.6 187.399 135.006 185.044 132.764 180.757C130.217 175.889 130.378 170.373 133.126 168.437C135.873 166.501 140.165 168.878 142.712 173.747C143.755 175.74 144.343 177.84 144.487 179.759" stroke="#2E2E2E" stroke-width="0.5815" stroke-miterlimit="10" stroke-linecap="round" stroke-linejoin="round"/>
<path d="M144.487 179.76C144.504 179.987 144.514 180.213 144.519 180.434L144.487 179.76Z" fill="#FBF9FF"/>
<path d="M144.487 179.76C144.504 179.987 144.514 180.213 144.519 180.434" stroke="#2E2E2E" stroke-width="0.5815" stroke-miterlimit="10" stroke-linecap="round" stroke-linejoin="round"/>
<path d="M135.246 170.845C134.051 171.301 133.155 172.567 132.982 174.048C132.808 175.529 133.363 177.169 134.383 178.195" stroke="#2E2E2E" stroke-width="0.5815" stroke-miterlimit="10" stroke-linecap="round" stroke-linejoin="round"/>
<path d="M169.251 165.657C167.91 164.952 166.461 164.655 165.015 164.556C163.565 164.468 162.109 164.606 160.7 164.941C159.292 165.276 157.931 165.814 156.677 166.547C155.43 167.297 154.267 168.207 153.367 169.462C154.905 169.532 156.26 169.426 157.588 169.333C158.909 169.223 160.18 169.091 161.436 168.935C162.693 168.78 163.934 168.606 165.191 168.393C166.451 168.169 167.718 167.934 169.074 167.487L169.098 167.48C169.619 167.308 169.902 166.747 169.731 166.226C169.648 165.971 169.47 165.773 169.251 165.657Z" fill="#2E2E2E"/>
<path d="M180.251 165.088C181.518 165.067 182.465 165.003 183.407 164.87C184.333 164.732 185.207 164.533 186.069 164.252C186.931 163.974 187.775 163.616 188.624 163.15C189.475 162.671 190.314 162.117 191.238 161.24C190.197 160.493 189.087 160.229 188.01 160.14C186.93 160.069 185.867 160.207 184.859 160.54C183.85 160.872 182.889 161.392 182.051 162.126C181.23 162.865 180.476 163.823 180.251 165.088Z" fill="#2E2E2E"/>
<path d="M177.563 170.936C177.563 170.936 182.782 179.39 184.403 181.391C185.144 182.304 185.145 183.659 184.464 184.618C183.255 186.323 181.186 187.636 179.245 188.003" stroke="#2E2E2E" stroke-width="0.5815" stroke-miterlimit="10" stroke-linecap="round" stroke-linejoin="round"/>
<path d="M179.976 185.483C178.889 185.443 177.794 185.947 177.118 186.8" stroke="#2E2E2E" stroke-width="0.5815" stroke-miterlimit="10" stroke-linecap="round" stroke-linejoin="round"/>
<path d="M169.101 174.695C168.914 173.498 168.03 172.569 167.009 172.056C165.991 171.533 164.788 171.484 163.623 171.706C162.442 171.916 161.321 172.425 160.182 172.985C159.037 173.532 157.851 174.145 156.533 174.486L156.525 174.489L156.556 174.013C157.897 174.918 159.406 175.58 160.988 175.893C162.569 176.211 164.219 176.162 165.771 175.733C165.919 175.692 166.071 175.778 166.111 175.926C166.152 176.073 166.066 176.225 165.919 176.266C164.283 176.719 162.541 176.77 160.882 176.436C159.22 176.107 157.643 175.414 156.247 174.472C156.123 174.387 156.09 174.218 156.174 174.094C156.191 174.068 156.211 174.047 156.234 174.03L156.279 173.996L156.285 173.991C157.309 173.165 158.337 172.383 159.502 171.705C160.663 171.036 161.978 170.497 163.384 170.276C164.776 170.065 166.346 170.218 167.6 171.042C168.82 171.819 169.748 173.214 169.653 174.676C169.644 174.829 169.511 174.945 169.358 174.936C169.226 174.927 169.121 174.827 169.101 174.702V174.695Z" fill="#2E2E2E"/>
<path d="M166.032 172.769C165.916 171.634 164.902 170.809 163.767 170.926C162.632 171.043 161.807 172.057 161.924 173.192C162.041 174.326 163.055 175.151 164.19 175.034C165.324 174.918 166.149 173.904 166.032 172.769Z" fill="#2E2E2E"/>
<path d="M186.488 169.702C186.575 168.687 185.822 167.793 184.807 167.707C183.792 167.62 182.898 168.373 182.812 169.388C182.725 170.403 183.478 171.297 184.493 171.383C185.508 171.471 186.401 170.718 186.488 169.702Z" fill="#2E2E2E"/>
<path d="M180.508 171.787C180.619 170.732 181.085 169.716 181.759 168.864C182.428 168.002 183.325 167.313 184.334 166.848C185.353 166.404 186.465 166.191 187.553 166.265C188.637 166.329 189.706 166.657 190.568 167.275L190.571 167.277L190.631 167.318C190.717 167.376 190.758 167.478 190.743 167.576C190.619 168.365 190.336 169.104 189.952 169.787C189.565 170.462 189.059 171.108 188.374 171.549C187.714 171.974 187.009 172.298 186.269 172.54C185.53 172.768 184.739 172.942 183.903 172.781C183.752 172.753 183.655 172.607 183.684 172.458C183.713 172.308 183.858 172.21 184.007 172.24H184.009L184.021 172.242C184.675 172.373 185.414 172.232 186.1 172.014C186.79 171.79 187.464 171.479 188.07 171.088C188.658 170.711 189.113 170.14 189.471 169.515C189.825 168.889 190.087 168.197 190.195 167.498L190.368 167.795H190.366C189.391 167.693 188.476 167.688 187.59 167.799C186.708 167.92 185.855 168.137 185.073 168.5C184.283 168.841 183.553 169.335 182.875 169.912C182.202 170.501 181.599 171.187 181.026 171.982L181.022 171.987C180.93 172.114 180.752 172.144 180.624 172.051C180.54 171.986 180.499 171.885 180.508 171.787Z" fill="#2E2E2E"/>
<path d="M182.279 196.843C179.126 198.626 175.042 198.633 171.883 196.862" stroke="#2E2E2E" stroke-width="0.5815" stroke-miterlimit="10" stroke-linecap="round" stroke-linejoin="round"/>
<path d="M183.937 191.959C183.01 192.938 181.683 193.526 180.334 193.555C179.825 194.282 178.726 194.27 178.022 193.729C175.307 194.467 172.284 194.595 169.543 193.967" stroke="#2E2E2E" stroke-width="0.5815" stroke-miterlimit="10" stroke-linecap="round" stroke-linejoin="round"/>
<path d="M209.528 249.172L198.642 356.639L117.466 356.111L101.872 254.259C99.3288 237.647 110.352 221.989 126.848 218.783L141.238 215.985H171.511L173.026 216.714C173.026 216.714 176.954 217.356 182.241 219.172H182.255C193.07 222.871 209.528 231.414 209.528 249.172Z" fill="#2E2E2E"/>
<path d="M101.466 270.89C111.756 276.525 121.375 278.76 122.951 275.883C124.527 273.005 117.463 266.104 107.173 260.469C96.8837 254.834 87.2648 252.599 85.6883 255.476C84.1118 258.355 91.1753 265.255 101.466 270.89Z" fill="#2E2E2E"/>
<path d="M76.2843 321.827C82.7063 325.429 91.1297 322.211 95.0031 314.677L127.672 251.127C132.365 241.999 129.419 231.196 121.262 227.613C113.494 224.2 104.008 228.693 100.075 237.647L71.3219 303.11C68.146 310.339 70.3032 318.472 76.2843 321.827Z" fill="#FBF9FF" stroke="#2E2E2E" stroke-width="0.7214" stroke-miterlimit="10" stroke-linecap="round" stroke-linejoin="round"/>
<path d="M85.9458 255.132C88.1096 252.797 97.3274 255.086 107.168 260.463C117.459 266.102 124.532 273.003 122.944 275.889C122.907 275.95 122.871 275.997 122.818 276.058L122.927 276.115L136.84 249.412C142.3 238.927 138.263 226.181 128.044 221.701C126.11 220.853 124.117 220.357 122.097 220.202C114.907 219.646 107.678 223.378 103.605 230.02L85.9458 255.132Z" fill="#2E2E2E"/>
<path d="M199.49 237.241L199.297 238.035L199.269 238.121L199.267 238.133L198.035 243.164L194.402 257.983L191.105 271.415L188.15 283.47L187.065 288.37C183.812 288.536 179.152 288.12 174.071 287.099C169 286.08 164.542 284.665 161.594 283.253L162.486 278.315L164.414 266.064L166.561 252.391L168.934 237.318L169.742 232.19L169.748 232.098L169.876 231.292L199.49 237.241Z" fill="#32A095"/>
<path d="M201.618 236.689C201.201 238.764 193.283 238.923 183.933 237.045C174.582 235.167 167.341 231.962 167.757 229.888C168.174 227.813 176.091 227.654 185.442 229.532C194.793 231.41 202.035 234.615 201.618 236.689Z" fill="#2E2E2E"/>
<path d="M201.021 244.586C200.581 246.777 192.219 246.946 182.343 244.962C172.468 242.979 164.819 239.594 165.259 237.403C165.699 235.211 174.061 235.043 183.937 237.027C193.812 239.011 201.461 242.395 201.021 244.586Z" fill="#2E2E2E"/>
<path d="M200.442 236.869L168.785 230.511L167.507 236.875L199.164 243.233L200.442 236.869Z" fill="#2E2E2E"/>
<path d="M196.097 234.866C195.901 235.839 190.696 235.614 184.472 234.365C178.248 233.114 173.359 231.311 173.555 230.337C173.751 229.363 178.955 229.589 185.18 230.838C191.405 232.089 196.293 233.892 196.097 234.866Z" fill="#FBF9FF" stroke="#2E2E2E" stroke-width="0.8949" stroke-miterlimit="10" stroke-linecap="round" stroke-linejoin="round"/>
<path d="M70.2385 313.165C70.4542 314.232 70.7916 315.292 71.2553 316.327C74.6317 323.855 83.4704 327.221 90.9985 323.845L151.397 289.044L157.252 288.259L163.994 287.388C164.835 287.368 165.683 287.258 166.524 287.061L166.605 287.051V287.042C167.911 286.728 169.2 286.209 170.413 285.448C170.958 285.106 171.457 284.722 171.931 284.319C172.038 284.33 172.143 284.353 172.253 284.354L188.282 284.461C190.042 284.473 191.479 283.056 191.491 281.295C191.502 279.534 190.085 278.097 188.324 278.086L175.915 278.002C176.181 276.955 176.303 275.882 176.266 274.814L192.088 273.195C193.86 273.014 195.149 271.431 194.969 269.659C194.787 267.886 193.204 266.597 191.432 266.778L174.112 268.55C174.063 268.554 174.019 268.571 173.97 268.578C173.875 268.459 173.77 268.352 173.671 268.238L175.241 266.152L191.199 265.572C192.923 265.51 194.269 264.061 194.207 262.338C194.144 260.615 192.696 259.269 190.973 259.331L173.585 259.963C173.227 259.976 172.891 260.058 172.577 260.184L173.28 257.634L185.625 256.372C187.347 256.196 188.601 254.656 188.425 252.933C188.249 251.211 186.71 249.957 184.987 250.133L170.388 251.626C168.792 251.789 167.614 253.125 167.587 254.69L166.525 258.545C163.808 260.659 153.068 267.62 148.019 270.873L95.0506 290.539" fill="#FBF9FF"/>
<path d="M70.2385 313.165C70.4542 314.232 70.7916 315.292 71.2553 316.327C74.6317 323.855 83.4704 327.221 90.9985 323.845L151.397 289.044L157.252 288.259L163.994 287.388C164.835 287.368 165.683 287.258 166.524 287.061L166.605 287.051V287.042C167.911 286.728 169.2 286.209 170.413 285.448C170.958 285.106 171.457 284.722 171.931 284.319C172.038 284.33 172.143 284.353 172.253 284.354L188.282 284.461C190.042 284.473 191.479 283.056 191.491 281.295C191.502 279.534 190.085 278.097 188.324 278.086L175.915 278.002C176.181 276.955 176.303 275.882 176.266 274.814L192.088 273.195C193.86 273.014 195.149 271.431 194.969 269.659C194.787 267.886 193.204 266.597 191.432 266.778L174.112 268.55C174.063 268.554 174.019 268.571 173.97 268.578C173.875 268.459 173.77 268.352 173.671 268.238L175.241 266.152L191.199 265.572C192.923 265.51 194.269 264.061 194.207 262.338C194.144 260.615 192.696 259.269 190.973 259.331L173.585 259.963C173.227 259.976 172.891 260.058 172.577 260.184L173.28 257.634L185.625 256.372C187.347 256.196 188.601 254.656 188.425 252.933C188.249 251.211 186.71 249.957 184.987 250.133L170.388 251.626C168.792 251.789 167.614 253.125 167.587 254.69L166.525 258.545C163.808 260.659 153.068 267.62 148.019 270.873L95.0506 290.539" stroke="#2E2E2E" stroke-width="0.6641" stroke-miterlimit="10" stroke-linecap="round" stroke-linejoin="round"/>
<path d="M386.336 199.278C387.678 209.053 381.365 219.037 387.553 227.595C391.266 232.732 398.579 233.685 403.404 237.797C411.03 244.296 409.915 257.262 403.307 264.794C396.698 272.326 386.389 275.436 376.465 276.821C358.669 279.305 339.965 277.212 323.982 269.003C318.565 266.22 312.911 261.734 312.954 255.645C312.996 249.68 318.648 244.348 317.234 238.554C315.708 232.301 306.96 230.037 305.319 223.813C303.438 216.673 311.794 211.476 315.52 205.099C320.527 196.529 320.966 185.532 327.224 177.667C343.422 157.311 381.243 162.165 386.336 199.278Z" fill="#2E2E2E"/>
<path d="M379.158 197.031C380.619 181.13 368.685 167.034 352.504 165.547C336.322 164.06 322.02 175.745 320.559 191.646C319.098 207.547 331.031 221.643 347.213 223.13C363.394 224.616 377.697 212.931 379.158 197.031Z" fill="#2E2E2E"/>
<path d="M367.397 272.025C360.201 274.238 352.612 270.045 350.635 262.787L348.634 253.948L347.751 250.045L347.246 247.827L347.071 247.051L346.338 243.804L342.94 228.825L363.405 222.538L363.917 223.855L366.649 230.838L367.881 233.991L369.096 237.09L369.4 237.864L376.084 254.974C376.326 255.666 376.501 256.365 376.618 257.061C377.726 263.546 373.884 270.038 367.397 272.025Z" fill="#FBF9FF" stroke="#2E2E2E" stroke-width="0.9737" stroke-miterlimit="10" stroke-linecap="round" stroke-linejoin="round"/>
<path d="M363.918 223.857C363.444 226.491 362.658 229.109 361.534 231.662C358.462 238.686 353.379 244.203 347.246 247.829L347.071 247.052L346.338 243.805L342.94 228.826L363.405 222.539L363.918 223.857Z" fill="#2E2E2E"/>
<path d="M370.552 201.918C370.406 204.127 367.938 206.123 367.66 208.32C367.491 209.728 367.281 211.134 367.032 212.536C365.988 218.389 364.955 223.515 361.202 227.92C356.142 233.858 347.765 239.458 339.929 239.364C338.592 239.35 337.287 239.115 336.07 238.67C335.574 238.493 335.105 238.289 334.645 238.052C333.039 237.216 331.644 236.025 330.57 234.524C328.252 231.256 326.371 227.717 324.981 223.977L324.786 223.476C324.224 221.961 323.744 220.744 323.343 219.616C322.276 216.664 321.713 214.303 321.439 208.656L321.44 208.65C321.423 208.395 321.411 208.141 321.402 207.877C321.304 205.508 322.516 198.446 322.516 198.446C322.51 198.439 322.512 198.428 322.507 198.411C321.563 192.426 322.597 186.237 325.818 181.187C326.75 179.727 327.76 178.361 328.791 177.325C328.969 177.14 329.139 176.972 329.322 176.799C329.397 176.732 329.473 176.657 329.548 176.59C331.794 174.516 334.434 172.852 337.357 171.725C339.144 171.028 341.034 170.53 342.993 170.262C344.22 170.099 345.468 170.019 346.737 170.032C347.804 170.043 348.847 170.128 349.869 170.262C355.73 171.042 361.305 173.989 365.261 178.574C368.458 182.274 370.519 186.978 370.959 191.945C370.993 192.327 371.015 192.708 371.031 193.095C371.136 195.994 370.746 199.059 370.552 201.918Z" fill="#FBF9FF" stroke="#2E2E2E" stroke-width="0.9737" stroke-miterlimit="10" stroke-linecap="round" stroke-linejoin="round"/>
<path d="M328.006 227.256C327.933 228.043 328.112 228.881 328.629 229.479C329.126 230.055 329.874 230.352 330.618 230.513C332.421 230.905 334.341 230.607 336.015 229.83C337.69 229.053 339.126 227.815 340.275 226.371C338.415 225.671 336.537 224.983 334.581 224.628C333.15 224.368 331.671 224.29 330.231 224.522C329.676 224.611 329.025 224.655 328.677 225.103C328.273 225.624 328.066 226.617 328.006 227.256Z" fill="#2E2E2E"/>
<path d="M340.276 226.372C340.276 226.372 334.914 222.328 333.11 222.434C331.667 222.518 331.01 223.303 331.01 223.303C331.01 223.303 330.001 222.298 329.103 222.536C327.676 222.916 327.009 224.884 327.65 225.787C328.085 226.401 330.513 226.271 331.571 226.405C332.629 226.539 334.108 226.557 335.57 226.546C337.029 226.536 340.276 226.372 340.276 226.372Z" fill="#2E2E2E"/>
<path d="M337.85 199.996C338.364 198.366 339.584 197.005 341.092 196.092C342.604 195.181 344.453 194.72 346.287 194.868C348.088 195.02 349.725 195.627 351.176 196.542C351.897 197.007 352.567 197.555 353.135 198.204C353.695 198.854 354.176 199.604 354.385 200.439C352.876 199.69 351.496 199.288 350.1 198.915C348.717 198.56 347.325 198.282 346.023 198.171C344.754 198.07 343.454 198.176 342.107 198.482C340.755 198.784 339.39 199.289 337.85 199.996Z" fill="#2E2E2E"/>
<path d="M330.648 199.423C330.17 199.247 329.727 199.184 329.29 199.083L328.028 198.802L325.68 198.269C324.925 198.121 324.212 198.008 323.48 197.982C322.743 197.955 321.982 198.033 320.977 198.351C321.199 197.29 322.055 196.403 323.063 195.976C324.076 195.54 325.185 195.498 326.176 195.702C327.171 195.914 328.084 196.346 328.876 196.947C329.271 197.248 329.635 197.599 329.953 198.003C330.254 198.41 330.572 198.863 330.648 199.423Z" fill="#2E2E2E"/>
<path d="M330.497 218.958C329.637 218.631 328.758 218.292 328.056 217.697C327.354 217.101 326.851 216.188 326.992 215.278C327.107 214.545 327.603 213.942 328.036 213.34C328.946 212.077 331.456 208.352 331.985 204.94" fill="#FBF9FF"/>
<path d="M330.497 218.958C329.637 218.631 328.758 218.292 328.056 217.697C327.354 217.101 326.851 216.188 326.992 215.278C327.107 214.545 327.603 213.942 328.036 213.34C328.946 212.077 331.456 208.352 331.985 204.94" stroke="#2E2E2E" stroke-width="0.5" stroke-miterlimit="10" stroke-linecap="round" stroke-linejoin="round"/>
<path d="M330.714 216.887C330.628 216.908 330.542 216.935 330.475 216.991C330.409 217.047 330.366 217.14 330.391 217.223C330.427 217.344 330.571 217.387 330.695 217.412C331.199 217.513 331.704 217.615 332.209 217.716C332.475 217.769 333.311 218.078 332.906 217.568C332.418 216.954 331.454 216.709 330.714 216.887Z" fill="#2E2E2E"/>
<path d="M338.356 205.671L339.54 204.356C339.972 203.925 340.434 203.506 340.97 203.192C342.016 202.521 343.265 202.196 344.51 202.126C345.759 202.109 347.028 202.365 348.137 202.96C348.7 203.24 349.203 203.626 349.678 204.025L350.971 205.228L350.75 205.132C350.786 205.155 350.965 205.137 351.114 205.092C351.27 205.049 351.434 204.989 351.594 204.922C351.916 204.785 352.242 204.621 352.533 204.435L352.541 204.431C352.622 204.379 352.729 204.403 352.78 204.484C352.825 204.554 352.813 204.645 352.755 204.701C352.477 204.972 352.186 205.202 351.871 205.422C351.712 205.53 351.549 205.634 351.367 205.727C351.178 205.814 351.002 205.918 350.672 205.924C350.6 205.922 350.532 205.896 350.48 205.853L350.448 205.828L349.078 204.713C348.643 204.369 348.2 204.041 347.7 203.808C346.726 203.299 345.627 203.048 344.526 203.045C343.427 203.046 342.314 203.297 341.329 203.821C340.822 204.06 340.376 204.407 339.939 204.764L338.599 205.917C338.527 205.98 338.418 205.971 338.355 205.899C338.296 205.833 338.299 205.734 338.356 205.671Z" fill="#2E2E2E"/>
<path d="M342.535 204.242C342.729 203.123 343.794 202.373 344.912 202.567C346.031 202.761 346.781 203.825 346.587 204.944C346.394 206.063 345.329 206.813 344.211 206.619C343.091 206.426 342.342 205.362 342.535 204.242Z" fill="#2E2E2E"/>
<path d="M348.572 206.481C349.34 206.388 350.088 206.118 350.738 205.696" stroke="#2E2E2E" stroke-width="0.9737" stroke-miterlimit="10" stroke-linecap="round" stroke-linejoin="round"/>
<path d="M338.668 203.341C339.957 201.886 341.856 200.988 343.799 200.915" stroke="#2E2E2E" stroke-width="0.5" stroke-miterlimit="10" stroke-linecap="round" stroke-linejoin="round"/>
<path d="M330.84 206.185L329.915 205.025C329.614 204.664 329.305 204.311 328.928 204.036C328.208 203.455 327.344 203.071 326.451 202.895C325.557 202.718 324.624 202.745 323.751 202.997C323.307 203.102 322.894 203.294 322.483 203.501L321.167 204.182L321.127 204.203C321.064 204.235 320.995 204.243 320.93 204.232C320.637 204.165 320.51 204.044 320.367 203.936C320.232 203.825 320.115 203.709 320.004 203.591C319.783 203.351 319.587 203.109 319.405 202.834C319.352 202.754 319.375 202.646 319.455 202.594C319.523 202.549 319.611 202.559 319.668 202.611L319.674 202.617C319.886 202.812 320.13 202.997 320.374 203.156C320.496 203.235 320.621 203.308 320.741 203.365C320.854 203.422 320.999 203.46 321.01 203.44L320.774 203.491L322.032 202.709C322.493 202.456 322.976 202.218 323.491 202.079C324.513 201.769 325.613 201.773 326.648 201.998C327.671 202.27 328.653 202.752 329.404 203.491C329.794 203.844 330.104 204.271 330.387 204.702C330.636 205.133 330.889 205.556 331.126 205.991C331.174 206.075 331.145 206.18 331.062 206.228C330.987 206.269 330.893 206.249 330.84 206.185Z" fill="#2E2E2E"/>
<path d="M327.905 204.138C327.931 203.186 327.18 202.392 326.228 202.366C325.276 202.339 324.483 203.09 324.456 204.042C324.429 204.994 325.18 205.788 326.132 205.814C327.084 205.84 327.878 205.09 327.905 204.138Z" fill="#2E2E2E"/>
<path d="M322.57 204.975C321.953 204.771 321.384 204.425 320.919 203.97" stroke="#2E2E2E" stroke-width="0.9737" stroke-miterlimit="10" stroke-linecap="round" stroke-linejoin="round"/>
<path d="M331.235 204.038C330.416 202.627 329.004 201.574 327.418 201.191" stroke="#2E2E2E" stroke-width="0.5" stroke-miterlimit="10" stroke-linecap="round" stroke-linejoin="round"/>
<path d="M370.607 200.833C370.569 200.812 370.53 200.797 370.491 200.776C362.201 196.741 354.358 191.781 347.143 186.042C343.482 183.132 339.635 179 334.979 179.422C331.161 179.772 327.508 181.28 324.458 183.601C324.85 182.77 325.297 181.967 325.794 181.186C326.721 179.726 327.731 178.36 328.768 177.324C328.945 177.139 329.115 176.971 329.299 176.798C329.374 176.731 329.45 176.656 329.525 176.589C331.771 174.515 334.411 172.852 337.334 171.724C339.116 171.027 341.005 170.528 342.971 170.261C344.197 170.099 345.445 170.018 346.714 170.031C347.781 170.042 348.824 170.127 349.846 170.261C355.707 171.041 361.277 173.988 365.238 178.573C368.436 182.273 370.49 186.976 370.936 191.945C371.195 194.81 370.842 197.902 370.607 200.833Z" fill="#2E2E2E"/>
<path d="M369.939 208.53C369.705 208.578 369.466 208.613 369.219 208.62C366.758 208.709 364.717 206.61 363.741 204.349C362.766 202.088 362.514 199.578 361.633 197.281C360.618 194.638 358.873 193.07 356.948 191.136C353.905 188.077 359.114 187.821 361.344 188.496C364.785 189.547 368.405 190.707 371.029 193.097C371.136 195.995 370.745 199.061 370.551 201.92C370.406 204.127 370.215 206.333 369.939 208.53Z" fill="#2E2E2E"/>
<path d="M343.614 170.188L343.609 170.195C341.993 171.493 340.563 172.87 339.379 174.467C338.778 175.255 338.252 176.098 337.772 176.973C337.294 177.852 336.891 178.772 336.489 179.734C336.543 177.648 337.382 175.599 338.638 173.912C339.909 172.236 341.627 170.853 343.607 170.193L343.614 170.188Z" fill="#F4F4F4"/>
<path d="M365.059 205.946C365.737 204.023 366.565 202.073 368.058 200.685C369.551 199.296 371.872 198.61 373.684 199.545C375.895 200.686 376.461 203.715 375.776 206.108C375.091 208.501 373.494 210.508 372.299 212.691C371.453 214.239 370.792 215.906 369.699 217.289C368.878 218.326 367.693 219.225 366.373 219.162C365.053 219.099 363.826 217.651 364.389 216.454" fill="#FBF9FF"/>
<path d="M365.059 205.946C365.737 204.023 366.565 202.073 368.058 200.685C369.551 199.296 371.872 198.61 373.684 199.545C375.895 200.686 376.461 203.715 375.776 206.108C375.091 208.501 373.494 210.508 372.299 212.691C371.453 214.239 370.792 215.906 369.699 217.289C368.878 218.326 367.693 219.225 366.373 219.162C365.053 219.099 363.826 217.651 364.389 216.454" stroke="#2E2E2E" stroke-width="0.9737" stroke-miterlimit="10" stroke-linecap="round" stroke-linejoin="round"/>
<path d="M368.216 206.384C368.37 204.911 369.042 203.492 370.018 202.353C370.502 201.808 371.09 201.201 371.927 201.067C372.338 200.992 372.782 201.127 373.084 201.385C373.384 201.641 373.589 202.064 373.459 202.427C373.461 202.051 373.226 201.753 372.933 201.597C372.64 201.431 372.313 201.388 372.007 201.473C371.381 201.642 370.88 202.164 370.42 202.699C369.485 203.774 368.778 205.023 368.216 206.384Z" fill="#2E2E2E"/>
<path d="M365.472 218.923C364.862 218.503 364.529 217.747 364.481 217.005C364.438 216.263 364.678 215.47 365.233 214.981C365.05 215.683 364.97 216.321 365.012 216.973C365.048 217.625 365.204 218.25 365.472 218.923Z" fill="#2E2E2E"/>
<path d="M366.737 211.949C367.415 211.424 367.93 210.831 368.305 210.139C368.683 209.448 368.901 208.695 368.977 207.84C369.327 208.642 369.193 209.618 368.77 210.394C368.346 211.167 367.599 211.809 366.737 211.949Z" fill="#2E2E2E"/>
<path d="M415.888 388.935L396.828 356.911L337.541 360.54L323.755 388.935H415.888Z" fill="#2E2E2E"/>
<path d="M314.995 355.491C307.764 355 302.556 347.812 303.421 339.518L310.725 269.561C311.775 259.513 320.019 252.197 328.67 253.638C336.909 255.009 342.305 263.82 340.724 273.316L329.165 342.741C327.888 350.407 321.73 355.948 314.995 355.491Z" fill="#323DA0"/>
<path d="M259.971 285.807C256.969 293.039 256.291 299.632 258.46 300.532C260.627 301.431 264.819 296.298 267.821 289.066C270.823 281.834 271.5 275.241 269.332 274.342C267.164 273.441 262.973 278.574 259.971 285.807Z" fill="#2E2E2E"/>
<path d="M234.322 256.736C233.04 256.812 232.062 257.911 232.137 259.193L232.813 270.804C232.819 270.905 232.869 270.989 232.887 271.087C232.918 271.249 232.947 271.405 233.011 271.556C233.071 271.698 233.152 271.819 233.237 271.944C233.317 272.063 233.392 272.178 233.495 272.281C233.616 272.405 233.756 272.496 233.901 272.59C233.98 272.641 234.034 272.716 234.121 272.757L244.509 277.778C245.665 278.337 247.055 277.852 247.614 276.696C248.173 275.54 247.688 274.151 246.533 273.592L237.376 269.167L236.779 258.924C236.704 257.64 235.603 256.661 234.322 256.736Z" stroke="#D37D8F" stroke-width="0.721" stroke-miterlimit="10"/>
<path d="M233.01 271.556C233.069 271.698 233.151 271.818 233.236 271.944C233.316 272.063 233.391 272.178 233.494 272.281C233.615 272.405 233.754 272.496 233.9 272.59C233.979 272.64 234.033 272.716 234.12 272.757L237.692 274.484L245.383 282.578L245.292 286.576C245.274 287.367 245.655 288.072 246.249 288.507L246.248 288.509L246.265 288.521C246.273 288.526 246.283 288.531 246.29 288.537L260.783 298.106L267.089 303.022L277.953 290.921L272.946 285.811L268.038 271.95L264.568 265.94L264.468 265.932L260.755 256.454C260.191 255.016 258.569 254.308 257.131 254.871C255.693 255.435 254.984 257.057 255.548 258.494L258.721 266.593L256.47 271.085L254.63 270.731L252.127 269.484C252.596 268.965 252.834 268.246 252.697 267.505C252.463 266.242 251.251 265.409 249.988 265.642L245.978 266.384L236.82 259.683L236.775 258.925C236.7 257.643 235.6 256.664 234.318 256.739C233.928 256.762 233.572 256.889 233.258 257.079L232.796 256.74C231.76 255.982 230.305 256.207 229.547 257.244C228.789 258.281 229.014 259.735 230.051 260.493L232.305 262.142L232.809 270.805C232.815 270.907 232.865 270.991 232.884 271.089C232.918 271.248 232.946 271.404 233.01 271.556ZM237.173 265.699L240.695 268.276L238.955 269.929L237.375 269.165L237.173 265.699Z" fill="#FBF9FF" stroke="#2E2E2E" stroke-width="0.721" stroke-miterlimit="10" stroke-linecap="round" stroke-linejoin="round"/>
<path d="M249.986 284.738L250.106 279.459L257.26 279.621C258.541 279.651 259.603 278.636 259.631 277.355V277.343C259.661 276.062 258.646 275.001 257.365 274.973L247.878 274.758C246.597 274.729 245.536 275.743 245.507 277.024V277.036C245.507 277.038 245.509 277.041 245.509 277.044L245.308 285.925" stroke="#2E2E2E" stroke-width="0.721" stroke-miterlimit="10" stroke-linecap="round" stroke-linejoin="round"/>
<path d="M245.601 276.055L242.592 272.888L244.095 271.458L250.836 270.211C252.099 269.977 252.934 268.764 252.7 267.501C252.466 266.239 251.253 265.405 249.991 265.638L242.596 267.006C242.516 267.021 242.456 267.071 242.38 267.094C242.227 267.135 242.086 267.196 241.943 267.269C241.824 267.332 241.714 267.397 241.61 267.479C241.537 267.533 241.45 267.557 241.383 267.621L237.765 271.059C237.742 271.079 237.713 271.085 237.691 271.106C237.221 271.552 236.982 272.149 236.972 272.751C236.955 273.347 237.166 273.948 237.61 274.414C237.625 274.43 237.648 274.436 237.663 274.452L245.384 282.576" stroke="#2E2E2E" stroke-width="0.721" stroke-miterlimit="10" stroke-linecap="round" stroke-linejoin="round"/>
<path d="M258.458 300.531L304.686 351.231C310.087 357.152 319.254 357.568 325.166 352.168C331.08 346.777 331.503 337.599 326.103 331.687L269.875 274.755C271.345 276.508 270.53 282.522 267.823 289.066C264.821 296.293 260.631 301.432 258.458 300.531Z" fill="#323DA0"/>
<path d="M314.788 320.23L269.876 274.756C271.346 276.509 270.531 282.523 267.824 289.067C264.822 296.293 260.632 301.432 258.459 300.531L304.687 351.231" stroke="#2E2E2E" stroke-width="0.5381" stroke-miterlimit="10" stroke-linecap="round" stroke-linejoin="round"/>
<path d="M263.338 306.003C265.527 306.935 269.979 302.055 273.088 294.754C275.996 287.924 276.836 281.644 275.142 280.098" stroke="#2E2E2E" stroke-width="0.5381" stroke-miterlimit="10" stroke-linecap="round" stroke-linejoin="round"/>
<path d="M238.832 269.976L237.399 269.287L236.698 258.774C236.61 257.459 235.472 256.463 234.157 256.551C232.841 256.639 231.846 257.776 231.934 259.092L232.729 271.008C232.736 271.112 232.788 271.198 232.808 271.298C232.841 271.464 232.872 271.624 232.939 271.78C233.001 271.925 233.087 272.048 233.175 272.176C233.259 272.297 233.337 272.414 233.442 272.52C233.567 272.645 233.712 272.738 233.862 272.833C233.944 272.885 234 272.961 234.089 273.003L237.793 274.694" fill="#FBF9FF"/>
<path d="M238.832 269.976L237.399 269.287L236.698 258.774C236.61 257.459 235.472 256.463 234.157 256.551C232.841 256.639 231.846 257.776 231.934 259.092L232.729 271.008C232.736 271.112 232.788 271.198 232.808 271.298C232.841 271.464 232.872 271.624 232.939 271.78C233.001 271.925 233.087 272.048 233.175 272.176C233.259 272.297 233.337 272.414 233.442 272.52C233.567 272.645 233.712 272.738 233.862 272.833C233.944 272.885 234 272.961 234.089 273.003L237.793 274.694" stroke="#2E2E2E" stroke-width="0.5321" stroke-miterlimit="10" stroke-linecap="round" stroke-linejoin="round"/>
<path d="M326.362 319.518L337.541 360.54L396.828 356.911L408.606 272.132C410.693 259.955 405.971 248.707 393.639 249.466L391.294 249.611L325.422 253.635C324.899 253.67 324.396 253.717 323.911 253.791C312.96 255.379 311.61 266.527 315.01 277.861L319.202 293.201C318.071 296.198 317.539 299.451 317.742 302.839C318.16 309.629 321.465 315.556 326.362 319.518Z" fill="#323DA0"/>
<path d="M315.01 277.861L319.202 293.201C318.071 296.198 317.539 299.451 317.743 302.839C318.16 309.63 321.465 315.556 326.363 319.518" stroke="#2E2E2E" stroke-width="0.5381" stroke-miterlimit="10" stroke-linecap="round" stroke-linejoin="round"/>
<path d="M416.865 350.931C409.857 352.777 402.624 347.629 400.795 339.493L385.365 270.869C383.149 261.013 388.623 251.446 397.282 250.047C405.526 248.715 413.455 255.34 414.991 264.842L426.218 334.322C427.458 341.995 423.394 349.212 416.865 350.931Z" fill="#323DA0"/>
<path d="M350.773 296.158C349.037 303.794 349.485 310.406 351.774 310.926C354.063 311.447 357.325 305.677 359.061 298.042C360.796 290.406 360.348 283.794 358.059 283.274C355.771 282.753 352.509 288.522 350.773 296.158Z" fill="#2E2E2E"/>
<path d="M328.943 247.394L328.861 248.199L328.859 248.289L328.857 248.301L328.344 253.409L326.834 268.456L325.47 282.096L324.241 294.337L323.633 299.273C326.618 300.506 331.108 301.659 336.194 302.386C341.269 303.112 345.902 303.265 349.124 302.921L349.924 298.012L352.176 285.929L354.694 272.444L357.465 257.577L358.407 252.519L358.431 252.432L358.577 251.636L328.943 247.394Z" fill="#FBF9FF" stroke="#2E2E2E" stroke-width="0.887" stroke-miterlimit="10" stroke-linecap="round" stroke-linejoin="round"/>
<path d="M361.029 251.037C361.326 248.961 353.981 246.192 344.625 244.853C335.268 243.513 327.442 244.111 327.145 246.187C326.848 248.263 334.192 251.031 343.549 252.371C352.905 253.71 360.731 253.113 361.029 251.037Z" fill="#2E2E2E"/>
<path d="M327.244 268.76L325.924 281.964C328.801 283.253 333.396 284.472 338.65 285.223C343.905 285.975 348.658 286.096 351.779 285.675L354.217 272.62C351.124 273.143 346.101 273.061 340.505 272.26C334.92 271.46 330.066 270.129 327.244 268.76Z" fill="#32A095"/>
<path d="M325.082 253.75C324.769 255.943 332.526 258.867 342.408 260.281C352.291 261.695 360.557 261.064 360.87 258.872C361.184 256.678 353.427 253.754 343.545 252.34C333.663 250.925 325.396 251.556 325.082 253.75Z" fill="#2E2E2E"/>
<path d="M327.283 253.105L358.963 257.64L359.875 251.272L328.194 246.737L327.283 253.105Z" fill="#2E2E2E"/>
<path d="M332.899 246.297C332.759 247.271 337.696 248.783 343.925 249.675C350.154 250.566 355.317 250.499 355.457 249.525C355.597 248.551 350.66 247.038 344.431 246.146C338.202 245.256 333.039 245.323 332.899 246.297Z" fill="#FBF9FF" stroke="#2E2E2E" stroke-width="0.887" stroke-miterlimit="10" stroke-linecap="round" stroke-linejoin="round"/>
<path d="M322.44 279.176C323.195 277.58 325.101 276.899 326.698 277.654L342.293 285.04C342.337 285.061 342.373 285.091 342.416 285.114C342.544 285.034 342.677 284.97 342.808 284.895L342.032 282.427L327.315 276.604C325.725 275.975 324.946 274.177 325.575 272.587C326.204 270.997 328.002 270.219 329.591 270.847L345.628 277.191C345.958 277.323 346.245 277.51 346.496 277.732L346.683 275.117L335.568 269.853C334.017 269.119 333.355 267.266 334.089 265.715C334.824 264.164 336.677 263.502 338.228 264.236L351.373 270.461C352.81 271.142 353.468 272.779 352.975 274.25L352.692 278.204C355.119 281.998 367.818 298.315 367.818 298.315L361.013 313.897L351.525 309.032L345.514 305.988C344.734 305.692 343.979 305.309 343.258 304.846L343.186 304.81L343.189 304.801C342.073 304.075 341.04 303.164 340.158 302.051C339.761 301.552 339.423 301.028 339.113 300.494C339.009 300.47 338.904 300.456 338.801 300.42L323.79 295.217C322.141 294.646 321.268 292.846 321.839 291.198C322.41 289.549 324.211 288.676 325.859 289.247L337.481 293.275C337.579 292.209 337.819 291.165 338.208 290.18L323.961 283.434C322.365 282.678 321.684 280.772 322.44 279.176Z" fill="#FBF9FF" stroke="#2E2E2E" stroke-width="0.6582" stroke-miterlimit="10" stroke-linecap="round" stroke-linejoin="round"/>
<path d="M351.773 310.925L405.912 353.075C412.237 357.996 421.343 356.855 426.257 350.534C431.174 344.22 430.037 335.103 423.716 330.189L358.666 283.591C360.411 285.07 360.626 291.134 359.065 298.043C357.328 305.673 354.067 311.447 351.773 310.925Z" fill="#323DA0"/>
<path d="M410.624 320.812L358.665 283.591C360.41 285.07 360.625 291.134 359.064 298.043C357.328 305.673 354.067 311.447 351.773 310.925L405.912 353.075" stroke="#2E2E2E" stroke-width="0.5381" stroke-miterlimit="10" stroke-linecap="round" stroke-linejoin="round"/>
<path d="M357.509 315.494C359.823 316.042 363.387 310.478 365.215 302.757C366.925 295.534 366.691 289.201 364.76 287.966" stroke="#2E2E2E" stroke-width="0.5381" stroke-miterlimit="10" stroke-linecap="round" stroke-linejoin="round"/>
</g>
<defs>
<clipPath id="clip0_28_5632">
<rect width="500" height="500" fill="white"/>
</clipPath>
</defs>
</svg>
