<svg width="317" height="409" viewBox="0 0 317 409" fill="none" xmlns="http://www.w3.org/2000/svg">
<path d="M390.62 169.35C401.027 205.038 407.257 242.499 403.142 279.457C399.027 316.415 383.814 352.972 356.483 378.091C329.151 403.211 288.94 415.282 253.529 404.334C226.619 396.015 204.064 375.597 176.335 370.674C151.776 366.316 126.817 374.769 101.874 374.884C61.8249 375.068 21.7094 350.813 6.55442 313.615C-8.60063 276.419 4.84203 228.607 39.0765 207.741C53.2308 199.115 70.4678 194.659 81.2966 182.087C94.6965 166.532 94.1169 143.379 89.9344 123.256C85.752 103.133 78.6776 82.8773 81.651 62.5348C86.263 30.9757 115.715 6.80859 147.141 2.02629C178.566 -2.7561 210.7 8.97514 236.669 27.3566C253.883 39.54 270.604 55.287 291.617 56.7967C300.845 57.4594 310.062 55.2233 319.31 55.4541C344.855 56.0884 366.81 75.8101 377.805 98.9539C388.799 122.1 388.633 143.787 390.62 169.35Z" fill="#E3E3E4"/>
</svg>
