<svg width="248" height="426" viewBox="0 0 248 426" fill="none" xmlns="http://www.w3.org/2000/svg">
<path d="M129.447 49.7242C161.415 68.6959 191.542 91.8149 213.767 121.629C235.993 151.443 249.835 188.541 247.013 225.555C244.191 262.569 223.05 298.842 189.702 315.018C164.36 327.31 133.94 327.79 110.318 343.124C89.3968 356.706 76.9301 379.922 58.7834 397.036C29.6459 424.512 -16.2252 434.176 -52.6943 417.343C-89.1621 400.51 -111.982 356.397 -101.212 317.778C-96.759 301.812 -87.2063 286.788 -87.877 270.209C-88.7054 249.695 -104.935 233.174 -121.73 221.325C-138.524 209.476 -157.522 199.506 -169.237 182.612C-187.413 156.403 -182.392 118.638 -162.694 93.6881C-142.998 68.7399 -111.508 55.3731 -79.984 51.0751C-59.0884 48.2253 -36.12 48.316 -19.7349 35.0729C-12.5397 29.2571 -7.33144 21.3305 -0.416444 15.1854C18.6816 -1.79048 48.1882 -2.36913 72.0231 7.03501C95.8577 16.4419 110.543 32.4017 129.447 49.7242Z" fill="#323DA0" fill-opacity="0.9"/>
</svg>
