<svg width="205" height="425" viewBox="0 0 205 425" fill="none" xmlns="http://www.w3.org/2000/svg">
<path d="M86.2111 48.7891C118.179 67.7608 148.307 90.8798 170.532 120.694C192.757 150.508 206.599 187.606 203.777 224.62C200.956 261.633 179.815 297.907 146.466 314.083C121.124 326.375 90.7038 326.855 67.0818 342.189C46.1611 355.771 33.6944 378.987 15.5477 396.101C-13.5898 423.577 -59.461 433.241 -95.93 416.408C-132.398 399.575 -155.217 355.462 -144.448 316.843C-139.995 300.877 -130.442 285.853 -131.113 269.274C-131.941 248.76 -148.171 232.238 -164.965 220.39C-181.76 208.541 -200.758 198.571 -212.473 181.677C-230.649 155.468 -225.628 117.703 -205.93 92.753C-186.233 67.8048 -154.744 54.4381 -123.22 50.1401C-102.324 47.2902 -79.3558 47.3809 -62.9706 34.1379C-55.7754 28.322 -50.5672 20.3954 -43.6522 14.2503C-24.5541 -2.72554 4.9525 -3.30418 28.7874 6.09995C52.622 15.5069 67.3073 31.4666 86.2111 48.7891Z" fill="#E3E3E4"/>
</svg>
